<svg width="469" height="451" viewBox="0 0 469 451" fill="none" xmlns="http://www.w3.org/2000/svg"><path d="M281.179 163.473C383.023 163.473 465.584 227.755 465.584 307.053C465.584 386.351 383.023 450.634 281.179 450.634C179.335 450.634 96.7728 386.351 96.7728 307.053C96.7728 227.755 179.335 163.473 281.179 163.473Z" fill="#AFAFAF" fill-opacity="0.3"/><path fill-rule="evenodd" clip-rule="evenodd" d="M247.75 321.997C259.489 331.635 261.191 348.963 251.554 360.701L232.054 384.451C222.416 396.19 205.087 397.892 193.349 388.255C181.611 378.617 179.908 361.288 189.546 349.55L209.046 325.8C218.684 314.062 236.012 312.359 247.75 321.997ZM318.825 327.701C330.933 318.533 348.181 320.917 357.349 333.026L370.599 350.526C379.767 362.634 377.383 379.882 365.275 389.05C353.166 398.218 335.918 395.834 326.75 383.726L313.5 366.226C304.332 354.117 306.716 336.869 318.825 327.701Z" fill="#F49000"/><path d="M228.433 9.43965C243.107 14.6707 258.481 18.1497 278.925 18.1497C299.369 18.1497 314.743 14.6707 329.417 9.43965C342.812 4.66466 355.624 0.0976562 371.176 0.0976562C423.316 0.0976562 440.029 58.5897 439.361 77.8087V214.682C439.361 348.246 330.732 384.309 278.925 385.646C227.117 384.309 118.488 348.246 118.488 214.682V77.8087C117.819 58.5897 134.532 0.0976562 186.674 0.0976562C202.226 0.0976562 215.038 4.66466 228.433 9.43965ZM266.765 369.054C261.64 368.164 259.245 369.539 259.245 372.446C259.245 377.285 271.591 379.816 280.302 379.816C289.013 379.816 300.608 375.835 300.608 372.446C300.608 369.732 298.242 368.845 296.659 369.054C288.261 370.163 271.34 369.852 266.765 369.054ZM264.761 353.104C264.761 349.117 236.622 343.777 225.717 343.777C215.564 343.777 229.226 361.139 245.458 361.139C260.875 361.139 264.761 355.742 264.761 353.104ZM295.177 353.104C295.177 349.117 323.316 343.777 334.221 343.777C344.374 343.777 330.712 361.139 314.48 361.139C299.064 361.139 295.177 355.742 295.177 353.104Z" fill="#58CC02"/><path d="M266.765 369.054C261.64 368.164 259.245 369.539 259.245 372.446C259.245 377.285 271.591 379.816 280.302 379.816C289.013 379.816 300.608 375.835 300.608 372.446C300.608 369.732 298.242 368.845 296.659 369.054C288.261 370.163 271.34 369.852 266.765 369.054ZM264.761 353.104C264.761 349.117 236.622 343.777 225.717 343.777C215.564 343.777 229.226 361.139 245.458 361.139C260.875 361.139 264.761 355.742 264.761 353.104ZM295.177 353.104C295.177 349.117 323.316 343.777 334.221 343.777C344.374 343.777 330.712 361.139 314.48 361.139C299.064 361.139 295.177 355.742 295.177 353.104Z" fill="#89E219"/><path d="M398.943 311.82C449.178 319.709 469.813 271.195 467.998 240.218C464.649 192.505 421.013 174.734 421.013 174.734L398.943 311.82ZM411.362 313.939L424.05 320.189Z" fill="#58CC02"/><path fill-rule="evenodd" clip-rule="evenodd" d="M395.663 306.206C399.934 297.536 410.425 293.97 419.095 298.241L431.783 304.491C440.453 308.762 444.019 319.252 439.749 327.923C435.478 336.593 424.987 340.159 416.317 335.888L403.629 329.638C394.959 325.367 391.392 314.877 395.663 306.206Z" fill="#58CC02"/><path d="M75.2968 154.352C87.0018 149.423 160.535 156.658 199.118 159.511L145.148 247.136C108.637 244.78 74.8418 223.568 64.8198 199.765C52.2918 170.011 66.6478 157.994 75.2968 154.352Z" fill="#58CC02"/><path d="M365.034 113.395C356.01 113.395 327.161 184.099 281.286 184.099C236.038 184.099 212.448 115.525 198.159 115.525C185.123 115.525 188.257 134.706 188.884 141.6C184.086 137.65 177.232 130.673 171.962 129C166.692 127.327 163.063 138.588 163.063 144.479C163.063 146.86 163.313 147.996 164.943 154.012C159.804 158.775 134.386 167.549 134.386 207.282C134.386 287.876 176.75 306.678 211.47 306.678C239.246 306.678 255.211 287.96 258.721 278.601H301.215C304.891 288.085 320.693 307.053 354.485 307.053C410.388 307.053 425.552 249.146 425.552 207.282C425.552 173.791 402.093 156.143 396.37 151.505C396.953 150.502 398.125 150.546 398.125 142.725C398.125 132.948 393.235 125.997 389.349 125.997C385.464 125.997 380.576 131.196 374.936 136.586C374.936 123.3 374.059 113.395 365.034 113.395Z" fill="#89E219"/><path d="M247.211 231.985C247.211 201.554 224.45 175.814 193.02 175.814C169.895 175.814 156.567 187.846 156.567 207.692C156.567 221.208 156.567 217.455 156.567 227.318C156.567 249.842 169.556 284.676 206.14 288.758C236.188 292.11 247.211 265.388 247.211 252.879V231.985ZM312.728 231.985C312.728 201.554 335.489 175.814 366.919 175.814C390.045 175.814 403.373 187.846 403.373 207.692C403.373 221.208 403.373 217.455 403.373 227.318C403.373 249.842 390.384 284.676 353.799 288.758C323.75 292.11 312.728 265.388 312.728 252.879V231.985Z" fill="white"/><path d="M215.827 219.286C214.131 199.291 209.271 188.66 193.862 188.66C172.751 188.66 173.358 207.505 173.358 217.853C173.358 242.166 183.345 250.887 194.629 250.887C205.913 250.887 218.065 245.671 215.827 219.286ZM317.944 232.635C317.944 206.532 327.306 193.25 342.696 194.004C360.61 194.881 360.894 214.791 360.894 225.139C360.894 249.452 350.869 259.146 339.258 258.663C327.984 258.194 317.944 250.202 317.944 232.635Z" fill="#4B4B4B"/><path d="M171.482 180.434C178.946 180.434 184.996 186.484 184.996 193.948C184.996 201.412 178.946 207.462 171.482 207.462C164.018 207.462 157.968 201.412 157.968 193.948C157.968 186.484 164.018 180.434 171.482 180.434ZM322.387 188.973C314.923 188.973 308.874 195.023 308.874 202.487C308.874 209.951 314.923 216.001 322.387 216.001C329.851 216.001 335.901 209.951 335.901 202.487C335.901 195.023 329.851 188.973 322.387 188.973Z" fill="white"/><path d="M401.875 270.082C408.523 261.702 390.47 296.302 354.679 297.708C318.888 299.114 311.934 272.475 315.053 277.146C321.3 286.501 323.181 294.045 355.676 292.236C388.171 290.427 394.8 279.001 401.875 270.082ZM254.486 279.982C253.347 291.752 229.394 299.065 200.988 296.315C172.582 293.565 156.515 277.488 157.654 265.718C158.793 253.948 176.348 254.659 204.754 257.409C233.16 260.159 255.625 268.212 254.486 279.982ZM145.197 212.685C145.197 212.685 193.499 223.424 246.008 217.047C303.856 210.022 174.006 160.667 174.006 160.667L145.197 212.685ZM419.267 210.846C419.267 210.846 366.809 226.074 314.3 219.697C256.452 212.672 375.549 154.238 375.549 154.238L419.267 210.846Z" fill="#89E219"/><path d="M280.325 259.633C293.585 259.633 304.334 270.382 304.334 283.642C304.334 296.902 293.585 307.651 280.325 307.651C267.065 307.651 256.316 296.902 256.316 283.642C256.316 270.382 267.065 259.633 280.325 259.633Z" fill="#F49000"/><path d="M280.325 270.916C287.353 270.916 293.05 276.613 293.05 283.641C293.05 290.669 287.353 296.366 280.325 296.366C273.297 296.366 267.6 290.669 267.6 283.641C267.6 276.613 273.297 270.916 280.325 270.916Z" fill="#B06800"/><path d="M311.802 279.183C311.802 269.335 296.678 256.791 280.5 256.791C261.625 256.791 250.136 271.211 250.136 279.183C250.136 283.989 272.528 299.7 280.5 299.7C288.472 299.7 311.802 281.762 311.802 279.183ZM273.333 271.207C275.659 270.044 281.645 268.415 286.974 271.207Z" fill="#FFC200"/><path fill-rule="evenodd" clip-rule="evenodd" d="M279.614 276.794C278.065 276.923 276.864 277.374 276.506 277.553C273.001 279.305 268.739 277.884 266.986 274.379C265.233 270.874 266.654 266.611 270.159 264.859C273.57 263.153 282.128 260.656 290.267 264.92C293.738 266.739 295.078 271.027 293.259 274.499C291.441 277.97 287.152 279.31 283.681 277.491C282.509 276.877 281.109 276.67 279.614 276.794Z" fill="#FFDE00"/><path d="M105.25 129.357V187.068H62.6538V129.357H105.25ZM166.985 250.617C166.985 296.475 129.81 333.65 83.9518 333.65C38.0938 333.65 0.9198 296.475 0.9198 250.617C0.9198 204.759 38.0938 167.584 83.9518 167.584C129.81 167.584 166.985 204.759 166.985 250.617Z" fill="#F0D8FD"/><path fill-rule="evenodd" clip-rule="evenodd" d="M46.4898 126.865C46.4898 116.648 54.7725 108.365 64.9898 108.365H104.24C114.457 108.365 122.74 116.648 122.74 126.865C122.74 137.083 114.457 145.365 104.24 145.365H64.9898C54.7725 145.365 46.4898 137.083 46.4898 126.865Z" fill="#F0D8FD"/><path fill-rule="evenodd" clip-rule="evenodd" d="M58.4898 123.615C58.4898 118.645 62.5192 114.615 67.4898 114.615H100.74C105.71 114.615 109.74 118.645 109.74 123.615C109.74 128.586 105.71 132.615 100.74 132.615H67.4898C62.5192 132.615 58.4898 128.586 58.4898 123.615Z" fill="#D0B5E2"/><path d="M49.4858 174.94L76.6438 175.255C86.5398 175.37 94.6558 167.441 94.7708 157.545C94.8698 149.055 88.0668 142.093 79.5768 141.994L65.2448 141.827C56.7548 141.728 49.7928 148.531 49.6938 157.021L49.4858 174.94Z" fill="#58CC02"/><path d="M84.0967 177C124.578 177 157.395 209.817 157.395 250.298C157.395 290.779 124.578 323.596 84.0967 323.596C43.6157 323.596 10.7987 290.779 10.7987 250.298C10.7987 209.817 43.6157 177 84.0967 177Z" fill="#CD7DFB"/><path d="M40.2867 186.812C25.4177 198.352 17.0367 212.812 17.0367 212.812C17.0367 212.812 21.5367 213.812 26.5367 214.812C28.9847 215.302 55.5257 215.252 82.4487 215.015C88.9347 214.958 95.4417 214.89 101.641 214.816C122.266 214.57 139.467 214.258 141.037 214.062C145.037 213.562 150.037 212.812 150.037 212.812C150.037 212.812 143.787 193.062 120.537 182.062C97.2867 171.062 57.0367 173.812 40.2867 186.812Z" fill="#F0D8FD"/><path d="M146.545 214.289C146.545 214.558 146.513 214.827 146.449 215.096C144.683 222.909 117.385 229.116 83.9757 229.116C52.3267 229.116 26.1617 223.542 21.9957 216.318C21.6057 215.653 21.4067 214.98 21.4067 214.289C21.4067 212.107 23.3897 210.04 26.9607 208.172C30.9977 206.061 37.0617 204.215 44.5617 202.772C55.3207 200.702 69.0367 199.463 83.9757 199.463C111.14 199.463 134.265 203.565 142.91 209.305C145.265 210.86 146.545 212.536 146.545 214.289Z" fill="#B16DE2"/><path fill-rule="evenodd" clip-rule="evenodd" d="M44.9208 209.874C50.1187 212.445 52.2484 218.743 49.6776 223.941C47.132 229.087 45.5286 232.41 44.0842 239.969C42.9958 245.665 37.496 249.4 31.8001 248.312C26.1041 247.224 22.369 241.724 23.4574 236.028C25.407 225.825 27.9136 220.576 30.854 214.631C33.4249 209.433 39.7228 207.303 44.9208 209.874Z" fill="white"/></svg>