<svg width="99" height="106" viewBox="0 0 99 106" fill="none" xmlns="http://www.w3.org/2000/svg"><path fill-rule="evenodd" clip-rule="evenodd" d="M36.2937 51.1354C40.6504 34.8762 57.9967 24.9384 75.433 29.6104C92.8694 34.2825 102.923 51.5621 98.5662 67.8213L93.5462 86.5563L83.445 83.8497L81.4101 91.4439L91.5113 94.1505L99.1055 96.1854L101.14 88.5912L106.16 69.8562C111.704 49.1664 98.8581 27.7477 77.4679 22.0162C56.0777 16.2847 34.2433 28.4108 28.6995 49.1006L23.6795 67.8356L21.6446 75.4298L29.2388 77.4646L37.7269 79.739L39.7618 72.1448L31.2737 69.8704L36.2937 51.1354Z" fill="#FFB2B2"/><path d="M70.3043 76.0963C71.518 71.5666 76.242 68.8967 80.8556 70.1329C85.4692 71.3691 88.2253 76.0433 87.0116 80.573L80.4186 105.178C79.2049 109.708 74.4809 112.378 69.8673 111.142C65.2537 109.905 62.4976 105.231 63.7113 100.702L70.3043 76.0963Z" fill="#FF4B4B"/><path d="M56.6344 72.4332C57.8481 67.9035 55.092 63.2293 50.4784 61.9931C45.8648 60.7569 41.1409 63.4268 39.9271 67.9565L33.3342 92.5617C32.1204 97.0914 34.8766 101.766 39.4901 103.002C44.1037 104.238 48.8277 101.568 50.0414 97.0384L56.6344 72.4332Z" fill="#FF4B4B"/><path d="M99.9555 44.0646C89.5344 26.0147 66.4541 19.8304 48.4043 30.2515" stroke="#FF4B4B" stroke-width="11.0069" stroke-linecap="round"/><path d="M79.8469 107.304C88.2352 109.552 96.8574 104.574 99.105 96.1854C101.353 87.7971 96.3747 79.1749 87.9863 76.9272L79.8469 107.304Z" fill="#FFB2B2"/><path d="M32.7649 94.6879C24.3765 92.4402 19.3985 83.8181 21.6462 75.4297C23.8938 67.0414 32.516 62.0634 40.9043 64.311L32.7649 94.6879Z" fill="#FFB2B2"/></svg>