<svg width="164" height="253" viewBox="0 0 164 253" fill="none" xmlns="http://www.w3.org/2000/svg"><mask id="mask0_17_17073" style="mask-type:alpha" maskUnits="userSpaceOnUse" x="0" y="0" width="164" height="253"><rect y="0.229248" width="164" height="252.771" fill="#D9D9D9"/></mask><g mask="url(#mask0_17_17073)"/><mask id="mask1_17_17073" style="mask-type:alpha" maskUnits="userSpaceOnUse" x="0" y="0" width="164" height="253"><rect y="0.229248" width="164" height="252.771" fill="#D9D9D9"/></mask><g mask="url(#mask1_17_17073)"><path d="M240.6 190.727C212.332 269.16 139.87 314.817 78.7506 292.704C9.72408 265.06 -9.00007 189.083 19.2678 110.65C47.5356 32.2164 105.241 -18.7797 181.117 8.67216C242.237 30.7848 268.868 112.293 240.6 190.727Z" fill="#52656D"/><path d="M226.832 183.962C199.887 261.585 130.004 307.771 70.7456 287.121C11.4868 266.472 -14.7086 186.806 12.2367 109.182C39.1819 31.559 109.064 -14.6272 168.323 6.02253C227.582 26.6723 253.777 106.338 226.832 183.962Z" fill="#798D95"/><path d="M214.453 180.034C189.519 251.863 126.277 295.098 73.1975 276.602C20.1184 258.105 -2.69776 184.882 22.2363 113.053C47.1703 41.2231 110.412 -2.01192 163.492 16.4844C216.571 34.9807 239.387 108.204 214.453 180.034Z" fill="white"/><path d="M199.267 175.706C177.829 237.464 122.981 274.471 76.759 258.365C30.5375 242.258 10.4463 179.136 31.8841 117.379C53.3219 55.6214 108.171 18.614 154.392 34.7207C200.614 50.8273 220.705 113.949 199.267 175.706Z" fill="#EC5953"/><path d="M186.659 172.398C168.27 225.374 121.642 257.266 82.5136 243.631C43.3851 229.996 26.5728 175.997 44.9623 123.021C63.3517 70.0453 109.979 38.1532 149.108 51.7881C188.236 65.4231 205.048 119.422 186.659 172.398Z" fill="white"/><path d="M173.899 168.956C157.715 213.515 118.372 240.076 86.024 228.282C53.6763 216.488 40.573 170.805 56.7571 126.246C72.9412 81.6865 112.284 55.1253 144.632 66.9195C176.979 78.7137 190.083 124.397 173.899 168.956Z" fill="#EC5953"/><path d="M162.908 164.95C149.76 201.151 117.797 222.73 91.5177 213.148C65.238 203.566 54.5928 166.452 67.741 130.252C80.8891 94.0515 112.852 72.4729 139.132 82.0546C165.411 91.6363 176.056 128.75 162.908 164.95Z" fill="white"/><g style="mix-blend-mode:multiply" opacity="0.2"><path d="M38.049 194.626C29.7618 192.031 21.5676 184.196 33.9984 166.725L89.4647 158.314C81.0623 132.597 65.1501 83.546 69.8462 82.7157C75.7164 81.6779 78.7575 86.3683 82.8081 93.0986C85.0431 96.8121 93.2699 94.4885 96.3776 89.8179C99.4854 85.1474 92.9889 58.2865 97.3903 59.7857C102.45 61.5091 102.614 65.9614 102.959 75.2882L102.96 75.3092C103.305 84.6504 110.483 84.2764 121.188 80.1249C131.892 75.9733 133.474 54.0773 139.517 59.7858C146.605 66.4822 140.934 73.5844 140.934 81.3968C140.934 88.9378 145.788 90.6768 155.111 93.0986C164.434 95.5204 183.732 70.7837 186.495 80.1249C189.257 89.466 180.072 97.3791 183.871 107.066C187.669 116.753 195.818 120.603 193.746 131.155C191.674 141.707 172.804 155.236 186.098 166.826C200.365 179.264 197.302 192.583 191.465 195.844C185.647 199.094 188.86 199.35 187.415 205.077C183.616 220.126 165.777 222.664 157.317 217.993C148.857 213.323 140.166 210.762 123.327 210.762C102.556 210.762 103.291 228.952 93.9956 242.922C88.1223 251.749 78.5267 238.111 81.2892 227.905C84.0516 217.699 85.2636 207.787 76.631 214.879C67.9984 221.972 62.4539 219.89 57.0868 214.879C51.037 209.232 69.6886 200.185 64.6817 193.612C58.55 185.561 48.3471 197.851 38.049 194.626Z" fill="#252525"/></g><path d="M0.792508 118.543C-1.1111 130.727 3.23284 180.578 55.6788 178.971C57.2254 185.893 62.1426 187.456 61.4012 192.903C60.5053 199.485 59.293 204.42 54.8255 207.739C51.1806 210.447 48.4512 219.72 58.0883 220.514C65.417 221.117 69.1529 210.382 69.1529 203.358C70.1541 209.233 70.0853 210.304 74.9042 219.357C78.7289 226.542 72.6484 231.324 72.8963 239.273C73.1733 248.155 80.9696 250.978 87.1522 247.672C95.3343 243.297 91.6826 230.362 98.3963 217.043C105.926 202.106 118.752 205.195 124.85 215.887C130.472 225.744 128.761 234.491 137.349 243.095C145.937 251.7 161.803 249.197 165.208 236.758C169.174 222.274 159.862 213.999 154.968 209.65C161.617 214.646 181.171 214.227 188.65 206.532C196.129 198.837 194.222 182.794 186.994 177.412C180.959 172.92 173.691 168.762 172.386 166.247C179.589 168.93 193.275 170.796 196.932 166.7C200.906 162.249 199.236 157.273 197.234 154.579C199.046 156.138 204.617 160.736 211.54 157.446C217.567 154.581 215.619 146.819 211.992 143.162C209.498 140.649 202.856 139.793 199.744 138.284C202.705 138.787 215.405 135.568 215.405 126.817C215.405 116.054 208.586 116.69 197.384 119.374C184.641 122.427 177.055 117.362 176 105.995C174.23 86.9011 186.496 92.8099 189.152 79.692C192.703 62.1566 176.03 56.255 167.166 63.749C158.301 71.2429 159.666 83.2962 150.802 88.2922C141.937 93.2882 136.003 89.2782 137.148 81.4523C138.805 70.1362 151.705 63.4472 146.384 52.2821C141.354 41.7257 129.707 43.698 125.954 48.7112C119.306 57.593 122.892 66.2133 114.409 73.003C105.578 80.0708 102.914 83.5143 101.659 88.8454C103.165 80.4967 98.9484 78.0323 98.6472 61.6366C98.4736 52.1851 104.872 48.6106 101.86 41.1672C99.6544 35.7167 91.9209 33.0197 87.1522 40.6642C82.0016 48.921 90.1153 54.2595 92.6202 59.2728C95.4346 64.9057 94.3303 72.073 92.6202 77.2778C91.078 81.9718 91.4276 87.1859 90.9671 91.6115C90.5486 95.634 86.063 98.9012 82.3835 97.8479C74.6269 95.6274 72.7959 83.1622 70.4869 74.7632C68.0917 66.0511 57.3855 63.8998 53.4199 71.8462C48.5883 81.528 58.54 85.1236 63.6601 92.6173C68.1778 99.2295 66.7221 108.409 66.7221 119.675L60.7989 129.633C59.9678 123.805 57.0341 116.909 54.1142 112.131C51.073 107.155 42.4771 108.661 42.2023 113.688C41.854 120.062 48.1379 118.857 51.7133 121.788C55.5784 124.956 54.9259 132.249 54.1142 135.06C54.9453 135.245 51.6211 135.06 40.7983 132.799C26.438 129.799 18.6063 119.781 14.9182 110.913C12.148 104.251 2.58869 107.046 0.792508 118.543Z" fill="#78C83C"/><path fill-rule="evenodd" clip-rule="evenodd" d="M52.7451 134.974C48.977 139.36 43.969 149.491 45.7638 159.291C48.1424 172.28 26.0576 163.616 22.1638 154.513C19.3228 147.871 10.1479 145.351 4.73145 147.054C10.9191 163.409 25.1493 179.905 55.6738 178.97C56.3838 182.147 57.8038 184.195 59.0608 186.008C60.3847 187.917 61.5277 189.566 61.4698 191.997C63.794 192.737 66.2333 194.879 63.8979 200.729C63.6213 201.421 63.3548 202.078 63.1013 202.704C60.3029 209.604 59.0793 212.621 63.1142 217.21C63.3768 217.509 63.6781 217.805 64.0139 218.098C67.4216 214.621 69.1479 208.131 69.1479 203.356C69.2178 203.766 69.2824 204.153 69.3439 204.521C70.1633 209.42 70.4167 210.935 74.8992 219.356C75.6131 220.697 75.9819 221.954 76.1112 223.164C80.1211 223.789 84.1511 223.487 86.955 221.627C87.6007 221.199 88.5253 221.574 88.3905 222.338C87.8916 225.167 86.2156 228.517 84.4847 231.977C81.4536 238.037 78.254 244.433 80.9113 248.953C82.9509 249.174 85.1346 248.747 87.1472 247.671C91.7508 245.209 92.6082 240.038 93.6734 233.613C94.5014 228.619 95.455 222.867 98.3913 217.042C99.1314 215.574 99.9228 214.28 100.754 213.15C99.6122 210.57 96.9371 207.859 91.5652 205.733C89.857 205.057 88.1939 204.425 86.5864 203.813C74.8756 199.359 66.1217 196.03 64.4484 185.237C62.5455 172.964 70.576 138.182 78.7824 133.415C85.5077 129.509 85.1613 120.217 80.492 118.137C75.8227 116.058 64.4919 123.681 62.8269 130.95C62.0651 134.275 62.0308 133.092 61.9704 131.017C61.9427 130.064 61.9096 128.923 61.7981 127.944L60.7939 129.632C60.7085 129.033 60.6009 128.423 60.4734 127.805C59.2395 129.223 57.2693 130.601 54.7087 131.022C54.6379 132.657 54.3826 134.112 54.1093 135.059C54.4553 135.136 54.081 135.149 52.7451 134.974ZM187.135 66.2995C187.824 71.7155 185.884 72.6753 182.361 74.4175C181.617 74.7856 180.802 75.1886 179.926 75.6761C173.323 79.3517 160.714 102.751 172.874 118.137C177.794 124.362 180.16 121.776 182.741 118.356C178.856 116.108 176.543 111.902 175.995 105.994C174.977 95.0102 178.603 92.3 182.373 89.4823C185.157 87.4017 188.019 85.2626 189.147 79.6906C190.306 73.9671 189.311 69.483 187.135 66.2995ZM202.888 118.194C201.62 121.353 201.885 123.928 204.409 126.136C208.787 129.966 205.075 134.202 200.285 137.268C199.121 138.013 198.124 138.579 197.259 139.07C194.145 140.837 192.756 141.625 191.56 146.257C190.83 149.082 188.901 148.519 186.423 147.795C183.712 147.003 180.342 146.019 177.167 149.075C173.528 152.576 174.126 154.779 174.947 157.804C175.579 160.132 176.343 162.948 175.408 167.218C182.901 169.307 193.735 170.274 196.928 166.698C200.901 162.248 199.231 157.272 197.229 154.578C199.041 156.137 204.612 160.734 211.535 157.444C217.562 154.58 215.614 146.818 211.987 143.161C210.414 141.575 207.189 140.649 204.241 139.802C202.517 139.307 200.887 138.839 199.739 138.283C202.7 138.785 215.4 135.567 215.4 126.816C215.4 117.953 210.776 116.819 202.888 118.194ZM188.447 178.712C191.578 188.466 191.653 193.596 183.348 197.718C175.635 201.545 173.919 201.854 169.314 202.683C168.442 202.84 167.466 203.016 166.327 203.238C160.862 204.301 157.529 208.22 157.639 211.118C165.829 214.46 182.001 213.366 188.645 206.531C195.593 199.382 194.44 185.029 188.447 178.712ZM157.328 211.806C154.824 213.96 152.23 219.418 157.267 225.943C160.237 229.789 157.297 237.894 151.182 236.571C145.869 235.422 143.767 237.669 138.72 243.063C138.505 243.293 138.285 243.529 138.059 243.77C146.783 251.555 161.89 248.858 165.203 236.757C168.591 224.382 162.288 216.54 157.328 211.806Z" fill="#65BA37"/><path d="M136.196 161.562C139.264 161.227 142.426 167.933 135.458 175.602C132.295 178.828 129.211 179.901 125.229 178.869C121.373 177.87 121.951 173.107 124.956 172.129C127.598 171.269 128.289 171.125 130.943 167.617C133.598 164.108 133.33 161.874 136.196 161.562Z" fill="#9DDD49"/><path d="M94.2713 122.639C91.9894 124.094 85.1649 120.063 86.9274 108.754C87.8827 103.857 91.0155 100.835 95.3086 99.3593C99.4665 97.93 101.217 102.489 99.0428 105.221C97.132 107.622 95.1053 108.932 95.765 113.535C96.4703 118.456 96.9554 120.928 94.2713 122.639Z" fill="#9DDD49"/><path d="M118.908 198.204C113.502 201.749 107.083 197.429 106.81 193.478C106.657 191.268 108.013 189.398 110.158 189.999C112.888 190.765 113.404 192.476 116.879 189.999C119.542 188.102 121.111 186.919 123.092 188.723C125.074 190.528 124.28 194.681 118.908 198.204Z" fill="#9DDD49"/><path d="M162.466 91.1157C159.868 90.1397 157.19 91.1157 151.913 98.0289C156.703 90.3024 155.336 88.4261 152.778 86.9982C150.413 85.6779 148.179 87.8625 146.961 91.685C145.744 95.5076 141.442 103.153 131.295 104.291C121.148 105.43 114.578 115.799 111.488 122.184C108.89 127.552 102.64 149.268 113.923 156.832C124.588 163.981 131.914 153.681 133.811 147.479C135.353 142.436 138.357 138.613 148.098 133.327C157.839 128.04 153.761 116.852 154.592 110.473C155.323 104.861 160.518 100.225 162.466 98.0289C164.414 95.8329 165.064 92.0917 162.466 91.1157Z" fill="#9DDD49"/><path d="M148.254 120.705C144.881 129.247 139.951 127.979 133.151 137.885C130.87 140.837 131.878 141.181 128.81 145.379C126.665 148.314 122.847 148.471 119.237 147.108C115.861 145.834 113.17 140.348 115.576 131.019C118.987 117.795 132.159 108.095 140.945 108.326C148.896 108.536 150.315 115.484 148.254 120.705Z" fill="white"/><path fill-rule="evenodd" clip-rule="evenodd" d="M129.521 122.613C129.163 122.224 128.557 122.095 128.147 122.429C119.027 129.861 119.379 138.245 120.861 140.153C122.472 142.228 126.291 141.398 126.982 138.908C127.179 138.198 127.308 137.601 127.425 137.065C127.832 135.189 128.079 134.052 130.479 131.392C133.446 128.104 135.93 126.609 137.899 125.424C139.961 124.183 141.458 123.282 142.353 121.018C144.101 116.591 139.716 113.083 136.597 114.724C136.364 114.846 136.154 114.966 135.965 115.085C135.477 115.392 135.55 116.073 135.954 116.486C136.739 117.288 137.223 118.387 137.223 119.599C137.223 122.055 135.236 124.046 132.784 124.046C131.494 124.046 130.332 123.494 129.521 122.613Z" fill="#4B4B4B"/><path d="M61.6816 107.301C62.283 111.88 66.0306 115.027 64.4883 122.266C63.8853 118.761 63.6765 117.754 62.2966 115.515C60.4891 112.583 56.0189 115.467 57.1013 118.118C58.1838 120.769 59.293 128.284 57.7508 132.432C56.1921 136.624 50.8568 139.807 51.2177 158.847C51.5785 177.886 61.9473 185.008 66.5176 187.9C71.088 190.793 84.437 191.257 87.948 180.255C91.7632 168.299 85.2577 167.843 83.4833 159.516C81.941 152.277 87.2263 147.862 87.948 136.173C88.639 124.98 78.5104 127.149 74.067 125.6C72.2 124.95 70.3413 124.069 70.3413 119.682C70.3413 115.434 70.7451 107.382 67.9788 104.129C65.2125 100.875 61.0802 102.721 61.6816 107.301Z" fill="#9DDD49"/><path d="M72.3321 178.051C68.8509 178.051 59.4571 175.119 58.75 154.573C58.75 146.605 60.5944 139.825 67.9959 134.297C71.9971 131.308 77.9698 133.128 78.8593 137.94C79.6753 142.355 76.5748 144.262 75.8677 151.456C75.1579 158.677 78.6376 163.779 79.4577 169.222C80.328 174.999 76.466 178.051 72.3321 178.051Z" fill="white"/><path fill-rule="evenodd" clip-rule="evenodd" d="M64.3073 151.987C63.7782 151.931 63.238 152.241 63.1701 152.77C62.4504 158.371 63.8348 166.074 67.2065 169.644C71.8641 174.575 76.2072 170.36 74.6718 166.647C74.5277 166.298 74.389 165.964 74.2556 165.643C72.1549 160.589 71.3709 158.702 71.5215 152.244C71.5778 149.829 72.1744 148.557 72.7397 147.352C73.2193 146.329 73.6764 145.355 73.762 143.77C73.9484 140.319 70.7763 138.315 68.0536 140.627C67.552 141.053 67.1239 141.484 66.751 141.941C66.3833 142.391 66.6389 143.045 67.1399 143.339C68.5168 144.147 69.4416 145.644 69.4416 147.358C69.4416 149.928 67.362 152.012 64.7966 152.012C64.6314 152.012 64.4681 152.003 64.3073 151.987Z" fill="#4B4B4B"/><path d="M86.9785 142.624C88.4393 138.337 93.0919 136.048 97.3703 137.512C101.649 138.976 103.933 143.637 102.472 147.924L98.1363 160.647C96.6755 164.933 92.023 167.222 87.7446 165.758C83.4661 164.294 81.182 159.633 82.6428 155.346L86.9785 142.624Z" fill="#E69335"/><path fill-rule="evenodd" clip-rule="evenodd" d="M83.8037 151.936C83.8153 153.064 84.3593 153.796 85.3433 154.022C86.4668 154.28 87.4291 153.527 87.7601 152.421L97.6852 149.9C96.9128 151.973 96.3688 153.963 98.5678 154.57C99.4496 154.814 100.037 154.448 100.454 153.842L102.471 147.924C103.931 143.637 101.647 138.976 97.3689 137.512C93.0905 136.049 88.438 138.337 86.9771 142.624L83.8037 151.936Z" fill="#F2C242"/><path d="M88.9866 148.628C89.7763 146.311 92.2915 145.073 94.6044 145.865C96.9173 146.656 98.152 149.176 97.3623 151.493L95.0185 158.371C94.2288 160.688 91.7136 161.926 89.4007 161.134C87.0878 160.343 85.8531 157.823 86.6428 155.506L88.9866 148.628Z" fill="#AC7137"/><path d="M88.5196 146.915C88.0134 146.09 88.2703 145.011 89.0935 144.503L94.6298 141.092C95.453 140.585 96.5306 140.842 97.0369 141.667L100.442 147.214C100.948 148.039 100.691 149.118 99.8678 149.626L94.3315 153.037C93.5083 153.544 92.4307 153.287 91.9244 152.462L88.5196 146.915Z" fill="#F2C242"/><path d="M151.842 258.048C153.009 261.554 152.598 271.878 152.42 275.704C152.381 276.539 152.944 277.253 153.774 277.336C158.822 277.839 167.127 276.875 167.662 280.09C168.324 284.074 161.461 289.271 156.26 289.271C151.432 289.271 154.73 293.894 149.79 294.302C144.85 294.71 144.369 291.148 142.148 287.333C140.628 284.723 137.547 287.333 135.129 279.721C133.481 274.53 134.843 269.104 137.662 266.89C140.339 264.788 140.49 264.288 141.786 259.568C143.081 254.849 149.939 252.327 151.842 258.048Z" fill="#E69335"/><path d="M240.6 190.727C212.332 269.16 139.87 314.817 78.7506 292.704C9.72408 265.06 -9.00007 189.083 19.2678 110.65C47.5356 32.2164 105.241 -18.7797 181.117 8.67216C242.237 30.7848 268.868 112.293 240.6 190.727Z" fill="#52656D"/><path d="M226.832 183.962C199.887 261.585 130.004 307.771 70.7456 287.121C11.4868 266.472 -14.7086 186.806 12.2367 109.182C39.1819 31.559 109.064 -14.6272 168.323 6.02253C227.582 26.6723 253.777 106.338 226.832 183.962Z" fill="#798D95"/><path d="M214.453 180.034C189.519 251.863 126.277 295.098 73.1975 276.602C20.1184 258.105 -2.69776 184.882 22.2363 113.053C47.1703 41.2231 110.412 -2.01192 163.492 16.4844C216.571 34.9807 239.387 108.204 214.453 180.034Z" fill="white"/><path d="M199.267 175.706C177.829 237.464 122.981 274.471 76.759 258.365C30.5375 242.258 10.4463 179.136 31.8841 117.379C53.3219 55.6214 108.171 18.614 154.392 34.7207C200.614 50.8273 220.705 113.949 199.267 175.706Z" fill="#EC5953"/><path d="M186.659 172.398C168.27 225.374 121.642 257.266 82.5136 243.631C43.3851 229.996 26.5728 175.997 44.9623 123.021C63.3517 70.0453 109.979 38.1532 149.108 51.7881C188.236 65.4231 205.048 119.422 186.659 172.398Z" fill="white"/><path d="M173.899 168.956C157.715 213.515 118.372 240.076 86.024 228.282C53.6763 216.488 40.573 170.805 56.7571 126.246C72.9412 81.6865 112.284 55.1253 144.632 66.9195C176.979 78.7137 190.083 124.397 173.899 168.956Z" fill="#EC5953"/><path d="M162.908 164.95C149.76 201.151 117.797 222.73 91.5177 213.148C65.238 203.566 54.5928 166.452 67.741 130.252C80.8891 94.0515 112.852 72.4729 139.132 82.0546C165.411 91.6363 176.056 128.75 162.908 164.95Z" fill="white"/><g style="mix-blend-mode:multiply" opacity="0.2"><path d="M38.049 194.626C29.7618 192.031 21.5676 184.196 33.9984 166.725L89.4647 158.314C81.0623 132.597 65.1501 83.546 69.8462 82.7157C75.7164 81.6779 78.7575 86.3683 82.8081 93.0986C85.0431 96.8121 93.2699 94.4885 96.3776 89.8179C99.4854 85.1474 92.9889 58.2865 97.3903 59.7857C102.45 61.5091 102.614 65.9614 102.959 75.2882L102.96 75.3092C103.305 84.6504 110.483 84.2764 121.188 80.1249C131.892 75.9733 133.474 54.0773 139.517 59.7858C146.605 66.4822 140.934 73.5844 140.934 81.3968C140.934 88.9378 145.788 90.6768 155.111 93.0986C164.434 95.5204 183.732 70.7837 186.495 80.1249C189.257 89.466 180.072 97.3791 183.871 107.066C187.669 116.753 195.818 120.603 193.746 131.155C191.674 141.707 172.804 155.236 186.098 166.826C200.365 179.264 197.302 192.583 191.465 195.844C185.647 199.094 188.86 199.35 187.415 205.077C183.616 220.126 165.777 222.664 157.317 217.993C148.857 213.323 140.166 210.762 123.327 210.762C102.556 210.762 103.291 228.952 93.9956 242.922C88.1223 251.749 78.5267 238.111 81.2892 227.905C84.0516 217.699 85.2636 207.787 76.631 214.879C67.9984 221.972 62.4539 219.89 57.0868 214.879C51.037 209.232 69.6886 200.185 64.6817 193.612C58.55 185.561 48.3471 197.851 38.049 194.626Z" fill="#252525"/></g><path d="M0.792508 118.543C-1.1111 130.727 3.23284 180.578 55.6788 178.971C57.2254 185.893 62.1426 187.456 61.4012 192.903C60.5053 199.485 59.293 204.42 54.8255 207.739C51.1806 210.447 48.4512 219.72 58.0883 220.514C65.417 221.117 69.1529 210.382 69.1529 203.358C70.1541 209.233 70.0853 210.304 74.9042 219.357C78.7289 226.542 72.6484 231.324 72.8963 239.273C73.1733 248.155 80.9696 250.978 87.1522 247.672C95.3343 243.297 91.6826 230.362 98.3963 217.043C105.926 202.106 118.752 205.195 124.85 215.887C130.472 225.744 128.761 234.491 137.349 243.095C145.937 251.7 161.803 249.197 165.208 236.758C169.174 222.274 159.862 213.999 154.968 209.65C161.617 214.646 181.171 214.227 188.65 206.532C196.129 198.837 194.222 182.794 186.994 177.412C180.959 172.92 173.691 168.762 172.386 166.247C179.589 168.93 193.275 170.796 196.932 166.7C200.906 162.249 199.236 157.273 197.234 154.579C199.046 156.138 204.617 160.736 211.54 157.446C217.567 154.581 215.619 146.819 211.992 143.162C209.498 140.649 202.856 139.793 199.744 138.284C202.705 138.787 215.405 135.568 215.405 126.817C215.405 116.054 208.586 116.69 197.384 119.374C184.641 122.427 177.055 117.362 176 105.995C174.23 86.9011 186.496 92.8099 189.152 79.692C192.703 62.1566 176.03 56.255 167.166 63.749C158.301 71.2429 159.666 83.2962 150.802 88.2922C141.937 93.2882 136.003 89.2782 137.148 81.4523C138.805 70.1362 151.705 63.4472 146.384 52.2821C141.354 41.7257 129.707 43.698 125.954 48.7112C119.306 57.593 122.892 66.2133 114.409 73.003C105.578 80.0708 102.914 83.5143 101.659 88.8454C103.165 80.4967 98.9484 78.0323 98.6472 61.6366C98.4736 52.1851 104.872 48.6106 101.86 41.1672C99.6544 35.7167 91.9209 33.0197 87.1522 40.6642C82.0016 48.921 90.1153 54.2595 92.6202 59.2728C95.4346 64.9057 94.3303 72.073 92.6202 77.2778C91.078 81.9718 91.4276 87.1859 90.9671 91.6115C90.5486 95.634 86.063 98.9012 82.3835 97.8479C74.6269 95.6274 72.7959 83.1622 70.4869 74.7632C68.0917 66.0511 57.3855 63.8998 53.4199 71.8462C48.5883 81.528 58.54 85.1236 63.6601 92.6173C68.1778 99.2295 66.7221 108.409 66.7221 119.675L60.7989 129.633C59.9678 123.805 57.0341 116.909 54.1142 112.131C51.073 107.155 42.4771 108.661 42.2023 113.688C41.854 120.062 48.1379 118.857 51.7133 121.788C55.5784 124.956 54.9259 132.249 54.1142 135.06C54.9453 135.245 51.6211 135.06 40.7983 132.799C26.438 129.799 18.6063 119.781 14.9182 110.913C12.148 104.251 2.58869 107.046 0.792508 118.543Z" fill="#78C83C"/><path fill-rule="evenodd" clip-rule="evenodd" d="M52.7451 134.974C48.977 139.36 43.969 149.491 45.7638 159.291C48.1424 172.28 26.0576 163.616 22.1638 154.513C19.3228 147.871 10.1479 145.351 4.73145 147.054C10.9191 163.409 25.1493 179.905 55.6738 178.97C56.3838 182.147 57.8038 184.195 59.0608 186.008C60.3847 187.917 61.5277 189.566 61.4698 191.997C63.794 192.737 66.2333 194.879 63.8979 200.729C63.6213 201.421 63.3548 202.078 63.1013 202.704C60.3029 209.604 59.0793 212.621 63.1142 217.21C63.3768 217.509 63.6781 217.805 64.0139 218.098C67.4216 214.621 69.1479 208.131 69.1479 203.356C69.2178 203.766 69.2824 204.153 69.3439 204.521C70.1633 209.42 70.4167 210.935 74.8992 219.356C75.6131 220.697 75.9819 221.954 76.1112 223.164C80.1211 223.789 84.1511 223.487 86.955 221.627C87.6007 221.199 88.5253 221.574 88.3905 222.338C87.8916 225.167 86.2156 228.517 84.4847 231.977C81.4536 238.037 78.254 244.433 80.9113 248.953C82.9509 249.174 85.1346 248.747 87.1472 247.671C91.7508 245.209 92.6082 240.038 93.6734 233.613C94.5014 228.619 95.455 222.867 98.3913 217.042C99.1314 215.574 99.9228 214.28 100.754 213.15C99.6122 210.57 96.9371 207.859 91.5652 205.733C89.857 205.057 88.1939 204.425 86.5864 203.813C74.8756 199.359 66.1217 196.03 64.4484 185.237C62.5455 172.964 70.576 138.182 78.7824 133.415C85.5077 129.509 85.1613 120.217 80.492 118.137C75.8227 116.058 64.4919 123.681 62.8269 130.95C62.0651 134.275 62.0308 133.092 61.9704 131.017C61.9427 130.064 61.9096 128.923 61.7981 127.944L60.7939 129.632C60.7085 129.033 60.6009 128.423 60.4734 127.805C59.2395 129.223 57.2693 130.601 54.7087 131.022C54.6379 132.657 54.3826 134.112 54.1093 135.059C54.4553 135.136 54.081 135.149 52.7451 134.974ZM187.135 66.2995C187.824 71.7155 185.884 72.6753 182.361 74.4175C181.617 74.7856 180.802 75.1886 179.926 75.6761C173.323 79.3517 160.714 102.751 172.874 118.137C177.794 124.362 180.16 121.776 182.741 118.356C178.856 116.108 176.543 111.902 175.995 105.994C174.977 95.0102 178.603 92.3 182.373 89.4823C185.157 87.4017 188.019 85.2626 189.147 79.6906C190.306 73.9671 189.311 69.483 187.135 66.2995ZM202.888 118.194C201.62 121.353 201.885 123.928 204.409 126.136C208.787 129.966 205.075 134.202 200.285 137.268C199.121 138.013 198.124 138.579 197.259 139.07C194.145 140.837 192.756 141.625 191.56 146.257C190.83 149.082 188.901 148.519 186.423 147.795C183.712 147.003 180.342 146.019 177.167 149.075C173.528 152.576 174.126 154.779 174.947 157.804C175.579 160.132 176.343 162.948 175.408 167.218C182.901 169.307 193.735 170.274 196.928 166.698C200.901 162.248 199.231 157.272 197.229 154.578C199.041 156.137 204.612 160.734 211.535 157.444C217.562 154.58 215.614 146.818 211.987 143.161C210.414 141.575 207.189 140.649 204.241 139.802C202.517 139.307 200.887 138.839 199.739 138.283C202.7 138.785 215.4 135.567 215.4 126.816C215.4 117.953 210.776 116.819 202.888 118.194ZM188.447 178.712C191.578 188.466 191.653 193.596 183.348 197.718C175.635 201.545 173.919 201.854 169.314 202.683C168.442 202.84 167.466 203.016 166.327 203.238C160.862 204.301 157.529 208.22 157.639 211.118C165.829 214.46 182.001 213.366 188.645 206.531C195.593 199.382 194.44 185.029 188.447 178.712ZM157.328 211.806C154.824 213.96 152.23 219.418 157.267 225.943C160.237 229.789 157.297 237.894 151.182 236.571C145.869 235.422 143.767 237.669 138.72 243.063C138.505 243.293 138.285 243.529 138.059 243.77C146.783 251.555 161.89 248.858 165.203 236.757C168.591 224.382 162.288 216.54 157.328 211.806Z" fill="#65BA37"/><path d="M136.196 161.562C139.264 161.227 142.426 167.933 135.458 175.602C132.295 178.828 129.211 179.901 125.229 178.869C121.373 177.87 121.951 173.107 124.956 172.129C127.598 171.269 128.289 171.125 130.943 167.617C133.598 164.108 133.33 161.874 136.196 161.562Z" fill="#9DDD49"/><path d="M94.2713 122.639C91.9894 124.094 85.1649 120.063 86.9274 108.754C87.8827 103.857 91.0155 100.835 95.3086 99.3593C99.4665 97.93 101.217 102.489 99.0428 105.221C97.132 107.622 95.1053 108.932 95.765 113.535C96.4703 118.456 96.9554 120.928 94.2713 122.639Z" fill="#9DDD49"/><path d="M118.908 198.204C113.502 201.749 107.083 197.429 106.81 193.478C106.657 191.268 108.013 189.398 110.158 189.999C112.888 190.765 113.404 192.476 116.879 189.999C119.542 188.102 121.111 186.919 123.092 188.723C125.074 190.528 124.28 194.681 118.908 198.204Z" fill="#9DDD49"/><path d="M162.466 91.1157C159.868 90.1397 157.19 91.1157 151.913 98.0289C156.703 90.3024 155.336 88.4261 152.778 86.9982C150.413 85.6779 148.179 87.8625 146.961 91.685C145.744 95.5076 141.442 103.153 131.295 104.291C121.148 105.43 114.578 115.799 111.488 122.184C108.89 127.552 102.64 149.268 113.923 156.832C124.588 163.981 131.914 153.681 133.811 147.479C135.353 142.436 138.357 138.613 148.098 133.327C157.839 128.04 153.761 116.852 154.592 110.473C155.323 104.861 160.518 100.225 162.466 98.0289C164.414 95.8329 165.064 92.0917 162.466 91.1157Z" fill="#9DDD49"/><path d="M148.254 120.705C144.881 129.247 139.951 127.979 133.151 137.885C130.87 140.837 131.878 141.181 128.81 145.379C126.665 148.314 122.847 148.471 119.237 147.108C115.861 145.834 113.17 140.348 115.576 131.019C118.987 117.795 132.159 108.095 140.945 108.326C148.896 108.536 150.315 115.484 148.254 120.705Z" fill="white"/><path fill-rule="evenodd" clip-rule="evenodd" d="M129.521 122.613C129.163 122.224 128.557 122.095 128.147 122.429C119.027 129.861 119.379 138.245 120.861 140.153C122.472 142.228 126.291 141.398 126.982 138.908C127.179 138.198 127.308 137.601 127.425 137.065C127.832 135.189 128.079 134.052 130.479 131.392C133.446 128.104 135.93 126.609 137.899 125.424C139.961 124.183 141.458 123.282 142.353 121.018C144.101 116.591 139.716 113.083 136.597 114.724C136.364 114.846 136.154 114.966 135.965 115.085C135.477 115.392 135.55 116.073 135.954 116.486C136.739 117.288 137.223 118.387 137.223 119.599C137.223 122.055 135.236 124.046 132.784 124.046C131.494 124.046 130.332 123.494 129.521 122.613Z" fill="#4B4B4B"/><path d="M61.6816 107.301C62.283 111.88 66.0306 115.027 64.4883 122.266C63.8853 118.761 63.6765 117.754 62.2966 115.515C60.4891 112.583 56.0189 115.467 57.1013 118.118C58.1838 120.769 59.293 128.284 57.7508 132.432C56.1921 136.624 50.8568 139.807 51.2177 158.847C51.5785 177.886 61.9473 185.008 66.5176 187.9C71.088 190.793 84.437 191.257 87.948 180.255C91.7632 168.299 85.2577 167.843 83.4833 159.516C81.941 152.277 87.2263 147.862 87.948 136.173C88.639 124.98 78.5104 127.149 74.067 125.6C72.2 124.95 70.3413 124.069 70.3413 119.682C70.3413 115.434 70.7451 107.382 67.9788 104.129C65.2125 100.875 61.0802 102.721 61.6816 107.301Z" fill="#9DDD49"/><path d="M72.3321 178.051C68.8509 178.051 59.4571 175.119 58.75 154.573C58.75 146.605 60.5944 139.825 67.9959 134.297C71.9971 131.308 77.9698 133.128 78.8593 137.94C79.6753 142.355 76.5748 144.262 75.8677 151.456C75.1579 158.677 78.6376 163.779 79.4577 169.222C80.328 174.999 76.466 178.051 72.3321 178.051Z" fill="white"/><path fill-rule="evenodd" clip-rule="evenodd" d="M64.3073 151.987C63.7782 151.931 63.238 152.241 63.1701 152.77C62.4504 158.371 63.8348 166.074 67.2065 169.644C71.8641 174.575 76.2072 170.36 74.6718 166.647C74.5277 166.298 74.389 165.964 74.2556 165.643C72.1549 160.589 71.3709 158.702 71.5215 152.244C71.5778 149.829 72.1744 148.557 72.7397 147.352C73.2193 146.329 73.6764 145.355 73.762 143.77C73.9484 140.319 70.7763 138.315 68.0536 140.627C67.552 141.053 67.1239 141.484 66.751 141.941C66.3833 142.391 66.6389 143.045 67.1399 143.339C68.5168 144.147 69.4416 145.644 69.4416 147.358C69.4416 149.928 67.362 152.012 64.7966 152.012C64.6314 152.012 64.4681 152.003 64.3073 151.987Z" fill="#4B4B4B"/><path d="M86.9785 142.624C88.4393 138.337 93.0919 136.048 97.3703 137.512C101.649 138.976 103.933 143.637 102.472 147.924L98.1363 160.647C96.6755 164.933 92.023 167.222 87.7446 165.758C83.4661 164.294 81.182 159.633 82.6428 155.346L86.9785 142.624Z" fill="#E69335"/><path fill-rule="evenodd" clip-rule="evenodd" d="M83.8037 151.936C83.8153 153.064 84.3593 153.796 85.3433 154.022C86.4668 154.28 87.4291 153.527 87.7601 152.421L97.6852 149.9C96.9128 151.973 96.3688 153.963 98.5678 154.57C99.4496 154.814 100.037 154.448 100.454 153.842L102.471 147.924C103.931 143.637 101.647 138.976 97.3689 137.512C93.0905 136.049 88.438 138.337 86.9771 142.624L83.8037 151.936Z" fill="#F2C242"/><path d="M88.9866 148.628C89.7763 146.311 92.2915 145.073 94.6044 145.865C96.9173 146.656 98.152 149.176 97.3623 151.493L95.0185 158.371C94.2288 160.688 91.7136 161.926 89.4007 161.134C87.0878 160.343 85.8531 157.823 86.6428 155.506L88.9866 148.628Z" fill="#AC7137"/><path d="M88.5196 146.915C88.0134 146.09 88.2703 145.011 89.0935 144.503L94.6298 141.092C95.453 140.585 96.5306 140.842 97.0369 141.667L100.442 147.214C100.948 148.039 100.691 149.118 99.8678 149.626L94.3315 153.037C93.5083 153.544 92.4307 153.287 91.9244 152.462L88.5196 146.915Z" fill="#F2C242"/><path d="M151.842 258.048C153.009 261.554 152.598 271.878 152.42 275.704C152.381 276.539 152.944 277.253 153.774 277.336C158.822 277.839 167.127 276.875 167.662 280.09C168.324 284.074 161.461 289.271 156.26 289.271C151.432 289.271 154.73 293.894 149.79 294.302C144.85 294.71 144.369 291.148 142.148 287.333C140.628 284.723 137.547 287.333 135.129 279.721C133.481 274.53 134.843 269.104 137.662 266.89C140.339 264.788 140.49 264.288 141.786 259.568C143.081 254.849 149.939 252.327 151.842 258.048Z" fill="#E69335"/></g></svg>