<svg width="274" height="249" viewBox="0 0 274 249" fill="none" xmlns="http://www.w3.org/2000/svg">
<mask id="mask0_131_7421" style="mask-type:luminance" maskUnits="userSpaceOnUse" x="0" y="-12" width="274" height="274">
<path d="M273.5 -11.6934H0.5V261.307H273.5V-11.6934Z" fill="white"/>
</mask>
<g mask="url(#mask0_131_7421)">
<mask id="mask1_131_7421" style="mask-type:luminance" maskUnits="userSpaceOnUse" x="-1" y="-13" width="486" height="274">
<path d="M484.821 -12.4414H-0.511719V260.306H484.821V-12.4414Z" fill="white"/>
</mask>
<g mask="url(#mask1_131_7421)">
<path d="M173.784 190.727C161.33 182.04 140.413 167.41 122.054 154.529C121.548 154.174 121.067 153.844 120.599 153.548C119.385 152.783 118.256 152.246 116.998 152.09C115.3 151.879 113.367 152.36 110.672 153.904C101.327 159.258 92.7483 164.393 83.3291 170.479C82.1516 171.24 81.7684 172.292 81.621 173.181C81.3725 174.679 81.8477 176.072 82.6185 177.548C83.3798 179.006 84.1938 180.47 85.1452 182.193C92.8906 196.227 105.151 217.902 112.59 230.687C113.777 232.727 115.262 234.523 116.823 236.179C118.059 237.49 120.43 239.884 122.018 240.896C124.949 242.763 128.28 241.962 130.635 240.387C141.298 233.259 165.944 216.702 176.624 208.835C178.81 207.226 179.651 203.853 179.277 202.331C178.709 200.019 178.036 197.939 177.235 196.198C176.434 194.457 175.383 191.843 173.784 190.727Z" fill="#58CC02"/>
<path d="M173.784 190.727C161.33 182.04 140.413 167.41 122.054 154.529C121.548 154.174 121.067 153.844 120.599 153.548C119.385 152.783 118.256 152.246 116.998 152.09C115.3 151.879 113.367 152.36 110.672 153.904C101.327 159.258 92.7483 164.393 83.3291 170.479C82.1516 171.24 81.7684 172.292 81.621 173.181C81.3725 174.679 81.8477 176.072 82.6185 177.548C83.3798 179.006 84.1938 180.47 85.1452 182.193C92.8906 196.227 105.151 217.902 112.59 230.687C113.777 232.727 115.262 234.523 116.823 236.179C118.059 237.49 120.43 239.884 122.018 240.896C124.949 242.763 128.28 241.962 130.635 240.387C141.298 233.259 165.944 216.702 176.624 208.835C178.81 207.226 179.651 203.853 179.277 202.331C178.709 200.019 178.036 197.939 177.235 196.198C176.434 194.457 175.383 191.843 173.784 190.727Z" stroke="#58CC02" stroke-width="1.64306"/>
<path d="M173.76 190.709C161.332 182.039 140.415 167.41 122.032 154.512C118.445 151.995 116.106 150.77 110.647 153.906C101.315 159.268 92.7655 164.377 83.3503 170.46C81.6595 171.553 80.7375 174.051 82.6188 177.548C90.0482 191.361 101.297 211.204 112.655 230.813C114.743 234.418 120.089 236.353 125.075 232.93C136.749 224.917 162.28 209.118 172.961 200.999C176.405 198.381 176.9 192.899 173.76 190.709Z" fill="white"/>
<path d="M173.76 190.709C161.332 182.039 140.415 167.41 122.032 154.512C118.445 151.995 116.106 150.77 110.647 153.906C101.315 159.268 92.7655 164.377 83.3503 170.46C81.6595 171.553 80.7375 174.051 82.6188 177.548C90.0482 191.361 101.297 211.204 112.655 230.813C114.743 234.418 120.089 236.353 125.075 232.93C136.749 224.917 162.28 209.118 172.961 200.999C176.405 198.381 176.9 192.899 173.76 190.709Z" stroke="#9DEEC7" stroke-width="1.64306"/>
<mask id="mask2_131_7421" style="mask-type:alpha" maskUnits="userSpaceOnUse" x="81" y="112" width="110" height="123">
<path d="M115.767 112.936C115.767 112.936 116.518 135.29 112.93 132.773C109.343 130.256 116.104 150.77 110.646 153.906C101.313 159.268 92.7637 164.377 83.3485 170.46C81.6576 171.553 80.7356 174.051 82.6169 177.548C90.0464 191.361 101.295 211.204 112.653 230.813C114.741 234.418 120.087 236.353 125.073 232.93C136.747 224.917 162.278 209.118 172.959 200.999C176.403 198.381 176.898 192.899 173.758 190.709C161.33 182.039 190.28 151.479 190.28 151.479C190.28 151.479 186.018 127.022 185.808 126.875C185.706 126.804 115.767 112.936 115.767 112.936Z" fill="white"/>
</mask>
<g mask="url(#mask2_131_7421)">
<mask id="mask3_131_7421" style="mask-type:luminance" maskUnits="userSpaceOnUse" x="-1" y="-13" width="486" height="274">
<path d="M484.823 -12.4414H-0.509766V260.306H484.823V-12.4414Z" fill="white"/>
</mask>
<g mask="url(#mask3_131_7421)">
<path d="M158.372 172.608C159.04 172.42 159.432 171.731 159.25 171.06L153.519 149.876C151.453 142.688 145.474 137.586 138.156 137.905C130.959 138.218 125.437 143.61 124.164 150.951L120.171 171.894C120.046 172.555 120.459 173.197 121.112 173.358C123.635 173.981 130.054 175.347 138.254 175.473C146.771 175.604 155.294 173.469 158.372 172.608Z" fill="#A175F9"/>
<path d="M147.04 180.938C146.292 179.198 143.674 178.4 141.934 179.148C140.194 179.897 138.625 182.655 139.373 184.395C139.373 184.395 141.017 189.128 142.513 191.982C143.828 194.492 145.755 197.361 145.755 197.361C147.286 199.234 148.521 199.905 150.261 199.157C152.001 198.408 152.806 196.391 152.057 194.651C152.057 194.651 150.55 191.245 149.553 188.518C148.555 185.792 147.04 180.938 147.04 180.938Z" fill="#A570FF"/>
<path d="M147.041 180.937C147.041 180.937 145.049 173.224 144.499 166.545L135.283 167.98C135.37 174.482 139.206 183.995 139.206 183.995C139.967 184.388 142.594 185.085 144.354 184.328C145.971 183.632 146.817 181.705 147.041 180.937Z" fill="#593F86"/>
<path d="M134.045 178.992C134.064 180.394 135.216 181.515 136.618 181.497C138.019 181.478 139.141 180.326 139.122 178.924C139.103 177.523 137.951 176.401 136.55 176.42C135.148 176.439 134.027 177.591 134.045 178.992Z" fill="#FFC6B7"/>
<path d="M140.96 165.434L152.981 172.901C155.817 174.663 154.624 179.034 151.286 179.111L131.126 179.576C127.778 179.653 126.392 175.32 129.163 173.439L140.96 165.434Z" fill="#593F86"/>
<path d="M141.33 173.365C143.115 172.213 143.945 171.354 145.149 171.338C146.33 171.322 147.331 172.118 147.629 173.207C146.336 173.242 143.188 173.319 141.33 173.365Z" fill="#FFC6B7"/>
<path d="M126.203 153.567L125.104 153.694C123.545 153.874 122.431 155.243 122.616 156.752C122.8 158.261 124.213 159.338 125.771 159.158L126.871 159.032C128.43 158.852 129.544 157.483 129.359 155.974C129.175 154.465 127.762 153.388 126.203 153.567ZM136.51 139.445C130.291 140.184 125.617 145.485 125.653 151.76L126.062 161.925C126.407 165.3 128.828 167.608 131.936 167.738C134.986 167.866 136.888 167.84 140.812 167.849C144.735 167.858 147.701 166.135 147.701 166.135C151.034 165.739 153.415 162.71 153.02 159.371C152.986 159.084 152.931 158.799 152.857 158.519L150.265 148.791C148.638 142.682 142.777 138.7 136.51 139.445Z" fill="#FFC6B7"/>
<path d="M133.97 151.55C135.447 152.45 135.597 154.004 135.625 154.241L135.929 156.794C136.046 157.781 135.338 158.677 134.347 158.794L132.463 159.017C130.432 159.258 128.589 157.811 128.348 155.787C128.276 155.179 127.877 151.578 127.877 151.578C127.877 151.578 132.089 150.403 133.97 151.55ZM137.754 150.933C136.642 152.337 136.646 153.188 136.67 153.823C136.701 154.653 136.929 156.549 136.929 156.549C137.055 157.606 138.023 158.362 139.091 158.236L140.955 158.017C143.052 157.77 144.55 155.886 144.302 153.808C144.205 152.998 143.677 149.645 143.677 149.645C143.677 149.645 138.813 149.598 137.754 150.933Z" fill="white"/>
<mask id="mask4_131_7421" style="mask-type:alpha" maskUnits="userSpaceOnUse" x="126" y="151" width="17" height="11">
<path d="M132.144 154.08C133.67 154.895 133.908 156.438 133.95 156.673L134.399 159.204C134.573 160.183 133.917 161.118 132.934 161.292L131.065 161.622C129.05 161.978 127.129 160.639 126.773 158.631C126.666 158.029 126.062 154.456 126.062 154.456C126.062 154.456 130.2 153.043 132.144 154.08ZM135.886 153.249C134.855 154.714 134.907 155.563 134.968 156.196C135.047 157.023 135.382 158.903 135.382 158.903C135.569 159.951 136.579 160.65 137.638 160.464L139.485 160.138C141.565 159.772 142.954 157.805 142.587 155.745C142.444 154.942 141.726 151.625 141.726 151.625C141.726 151.625 136.866 151.856 135.886 153.249Z" fill="white"/>
</mask>
<g mask="url(#mask4_131_7421)">
<path d="M130.3 154.641C130.427 155.609 131.225 156.235 132.125 156.125C133.026 156.015 133.657 155.17 133.562 154.243C133.466 153.316 133.299 151.741 133.299 151.741L129.992 151.978C129.992 151.978 130.173 153.673 130.3 154.641ZM137.68 154.11C137.772 155.204 138.604 155.703 139.505 155.593C140.405 155.483 141.027 154.58 140.941 153.712C140.853 152.822 140.769 151.588 140.769 151.588L137.573 151.852C137.573 151.852 137.587 153.016 137.68 154.11Z" fill="#3D3D3D"/>
</g>
<mask id="mask5_131_7421" style="mask-type:alpha" maskUnits="userSpaceOnUse" x="126" y="151" width="17" height="11">
<path d="M132.144 154.08C133.67 154.895 133.908 156.438 133.95 156.673L134.399 159.204C134.573 160.183 133.917 161.118 132.934 161.292L131.065 161.622C129.05 161.978 127.129 160.639 126.773 158.631C126.666 158.029 126.062 154.456 126.062 154.456C126.062 154.456 130.2 153.043 132.144 154.08ZM135.886 153.249C134.855 154.714 134.907 155.563 134.968 156.196C135.047 157.023 135.382 158.903 135.382 158.903C135.569 159.951 136.579 160.65 137.638 160.464L139.485 160.138C141.565 159.772 142.954 157.805 142.587 155.745C142.444 154.942 141.726 151.625 141.726 151.625C141.726 151.625 136.866 151.856 135.886 153.249Z" fill="white"/>
</mask>
<g mask="url(#mask5_131_7421)">
<path d="M126.953 150.784L127.236 154.956L145.247 153.249L144.701 148.748L126.953 150.784Z" fill="#A570FF"/>
</g>
<path d="M137.855 166.191C137.938 165.602 137.947 164.992 137.873 164.374C137.408 160.488 133.853 157.711 129.933 158.173C128.887 158.296 128.1 158.657 127.51 159.1C126.142 160.126 137.791 166.644 137.855 166.191Z" fill="#FFC6B7"/>
<path d="M134.997 162.032C133.663 160.034 132.326 159.318 131.072 160.156C130.843 160.309 130.779 160.622 130.93 160.855C131.08 161.088 131.388 161.153 131.616 161C132.282 160.555 133.107 160.997 134.176 162.599C134.33 162.83 134.639 162.89 134.865 162.733C135.092 162.577 135.151 162.263 134.997 162.032ZM136.973 161.074C136.138 161.171 135.381 160.593 135.283 159.782C135.184 158.971 136.464 156.877 136.464 156.877L136.675 157.095C137.142 157.587 138.23 158.795 138.307 159.43C138.405 160.241 137.808 160.977 136.973 161.074Z" fill="#EE9583"/>
<path d="M158.878 171.603C155.999 161.193 153.366 138.777 138.943 138.771C138.746 138.771 138.583 138.865 138.45 139.043C136.47 141.71 141.338 163.177 142.007 168.665C142.088 169.327 142.671 169.703 143.335 169.773C147.884 170.258 155.287 171.368 158.878 171.603ZM133.511 139.625C129.016 140.938 125.642 144.857 125.182 150.868L131.993 150.054C136.949 149.467 138.397 145.395 138.804 140.34L140.134 138.931C138.045 138.656 135.431 139.064 133.511 139.625Z" fill="#A570FF"/>
</g>
</g>
<mask id="mask6_131_7421" style="mask-type:alpha" maskUnits="userSpaceOnUse" x="81" y="152" width="95" height="83">
<path d="M173.766 190.71C161.338 182.041 140.42 167.412 122.038 154.514C118.451 151.997 116.112 150.772 110.653 153.908C101.321 159.27 92.7715 164.379 83.3563 170.462C81.6655 171.555 80.7434 174.053 82.6247 177.55C90.0542 191.362 101.303 211.206 112.66 230.815C114.749 234.42 120.095 236.355 125.081 232.932C136.755 224.919 162.286 209.12 172.966 201.001C176.411 198.383 176.906 192.901 173.766 190.71Z" fill="white"/>
</mask>
<g mask="url(#mask6_131_7421)">
<mask id="mask7_131_7421" style="mask-type:luminance" maskUnits="userSpaceOnUse" x="-1" y="-13" width="486" height="274">
<path d="M484.829 -12.4395H-0.503906V260.308H484.829V-12.4395Z" fill="white"/>
</mask>
<g mask="url(#mask7_131_7421)">
<path d="M106.448 157.927C103.224 158.975 101.022 161.103 101.533 162.676C102.044 164.249 105.077 164.676 108.3 163.629C111.524 162.581 113.727 160.454 113.215 158.88C112.704 157.307 109.672 156.88 106.448 157.927Z" fill="#E6A000"/>
<path d="M110.964 156.747C108.498 156.215 104.762 157.255 102.62 159.07C100.478 160.885 100.74 162.787 103.205 163.32C105.671 163.852 109.406 162.812 111.549 160.997C113.691 159.182 113.429 157.279 110.964 156.747Z" fill="#FFC700"/>
<path d="M104.143 158.597C103.859 158.777 103.593 158.97 103.351 159.175C102.891 159.565 102.562 159.96 102.362 160.339C102.32 160.418 102.412 160.429 102.527 160.454C103.69 160.709 108.287 161.701 108.914 161.834C109 161.852 109.149 161.887 109.37 161.786C109.949 161.52 110.444 161.17 110.88 160.801C111.134 160.586 111.347 160.369 111.522 160.155C111.558 160.111 111.627 160.041 111.367 159.985C110.248 159.743 106.128 158.863 104.565 158.526C104.359 158.481 104.238 158.537 104.143 158.597ZM110.387 157.217C109.026 156.923 107.206 157.197 105.604 157.851C105.49 157.897 105.204 158.045 105.541 158.124C105.878 158.203 110.974 159.281 111.579 159.411C111.934 159.488 112.015 159.3 112.033 159.241C112.314 158.301 111.749 157.511 110.387 157.217Z" fill="#FFE700"/>
<path d="M100.142 169.386C96.1604 171.414 93.8122 174.796 94.9012 176.934C95.9903 179.071 100.107 179.159 104.088 177.131C108.07 175.102 110.418 171.72 109.329 169.583C108.24 167.445 104.123 167.357 100.142 169.386Z" fill="#E6A000"/>
<path d="M105.884 166.974C102.488 166.64 97.8288 168.745 95.4774 171.675C93.126 174.605 93.9726 177.25 97.3682 177.584C100.764 177.918 105.423 175.813 107.775 172.883C110.126 169.953 109.279 167.308 105.884 166.974Z" fill="#FFC700"/>
<path d="M97.3616 170.749C97.0337 171.051 96.7334 171.369 96.468 171.7C95.9629 172.329 95.6327 172.943 95.4686 173.513C95.4343 173.632 95.5582 173.632 95.7166 173.648C97.3192 173.811 103.65 174.432 104.513 174.513C104.631 174.524 104.837 174.549 105.102 174.368C105.797 173.894 106.358 173.315 106.837 172.719C107.116 172.372 107.341 172.03 107.515 171.697C107.55 171.628 107.623 171.518 107.266 171.483C105.724 171.332 100.053 170.787 97.9008 170.576C97.6163 170.548 97.471 170.648 97.3616 170.749ZM105.243 167.736C103.368 167.552 101.037 168.248 99.0949 169.445C98.9569 169.53 98.6181 169.788 99.0835 169.842C99.5488 169.897 106.561 170.554 107.395 170.636C107.883 170.684 107.941 170.405 107.949 170.319C108.072 168.941 107.119 167.92 105.243 167.736Z" fill="#FFE700"/>
<path d="M102.26 182.885C96.8943 186.108 94.0478 191.238 95.9069 194.332C97.766 197.426 103.632 197.321 108.997 194.097C114.362 190.874 117.208 185.744 115.349 182.65C113.49 179.556 107.625 179.661 102.26 182.885Z" fill="#E6A000"/>
<path d="M110.093 179.04C105.217 178.742 98.899 182.116 95.9822 186.578C93.0654 191.039 94.6537 194.898 99.5298 195.196C104.406 195.494 110.724 192.12 113.641 187.658C116.557 183.197 114.969 179.338 110.093 179.04Z" fill="#FFC700"/>
<path d="M98.5272 185.101C98.1051 185.567 97.7244 186.054 97.3952 186.557C96.7687 187.516 96.3884 188.441 96.238 189.292C96.2066 189.47 96.3828 189.463 96.6103 189.477C98.9123 189.626 108.003 190.181 109.242 190.251C109.411 190.261 109.708 190.286 110.059 190.004C110.978 189.264 111.691 188.377 112.286 187.468C112.631 186.94 112.901 186.422 113.1 185.92C113.141 185.817 113.228 185.65 112.716 185.619C110.501 185.483 102.359 185.004 99.2686 184.815C98.8601 184.79 98.6681 184.946 98.5272 185.101ZM109.294 180.201C106.602 180.036 103.39 181.199 100.802 183.077C100.618 183.21 100.174 183.61 100.843 183.664C101.513 183.718 111.578 184.287 112.775 184.36C113.477 184.403 113.519 183.988 113.517 183.86C113.492 181.819 111.988 180.366 109.294 180.201Z" fill="#FFE700"/>
<path d="M120.917 190.829C115.247 194.799 112.801 201.102 115.458 204.896C118.114 208.69 124.874 208.547 130.543 204.578C136.212 200.608 138.658 194.305 136.002 190.511C133.345 186.717 126.586 186.86 120.917 190.829Z" fill="#E6A000"/>
<path d="M129.309 185.959C123.626 185.604 116.881 189.761 114.244 195.245C111.607 200.728 114.076 205.461 119.759 205.816C125.442 206.171 132.187 202.013 134.824 196.53C137.461 191.047 134.992 186.314 129.309 185.959Z" fill="#FFC700"/>
<path d="M116.943 193.425C116.532 193.997 116.172 194.596 115.875 195.215C115.308 196.393 115.021 197.53 114.987 198.575C114.98 198.793 115.182 198.784 115.448 198.802C118.132 198.978 128.727 199.639 130.17 199.722C130.367 199.734 130.714 199.764 131.073 199.417C132.013 198.506 132.692 197.416 133.229 196.299C133.542 195.65 133.768 195.013 133.915 194.397C133.945 194.27 134.02 194.065 133.422 194.028C130.841 193.867 121.355 193.298 117.753 193.073C117.277 193.043 117.081 193.234 116.943 193.425ZM128.579 187.385C125.441 187.189 121.921 188.623 119.239 190.935C119.048 191.099 118.601 191.591 119.383 191.656C120.166 191.721 131.889 192.396 133.284 192.483C134.102 192.534 134.082 192.024 134.059 191.867C133.695 189.362 131.718 187.581 128.579 187.385Z" fill="#FFE700"/>
<path d="M148.867 191.559C142.092 196.303 139.479 204.281 143.038 209.363C146.596 214.445 154.986 214.719 161.762 209.974C168.538 205.23 171.15 197.252 167.592 192.17C164.034 187.088 155.643 186.814 148.867 191.559Z" fill="#E6A000"/>
<path d="M158.957 185.934C151.871 185.09 143.772 190.004 140.866 196.91C137.961 203.816 141.35 210.098 148.436 210.942C155.523 211.786 163.622 206.872 166.528 199.966C169.433 193.06 166.044 186.778 158.957 185.934Z" fill="#FFC700"/>
<path d="M144.096 194.744C143.623 195.455 143.217 196.205 142.889 196.984C142.265 198.468 141.985 199.917 142.014 201.265C142.02 201.547 142.27 201.548 142.601 201.589C145.949 201.999 159.16 203.572 160.959 203.776C161.205 203.804 161.638 203.867 162.06 203.443C163.167 202.33 163.937 200.968 164.529 199.561C164.873 198.743 165.112 197.936 165.253 197.15C165.282 196.988 165.36 196.728 164.615 196.64C161.396 196.257 149.57 194.878 145.078 194.343C144.484 194.273 144.253 194.506 144.096 194.744ZM158.145 187.728C154.233 187.262 149.955 188.877 146.779 191.682C146.554 191.881 146.031 192.486 147.008 192.623C147.985 192.76 162.598 194.427 164.338 194.634C165.358 194.755 165.299 194.095 165.26 193.891C164.637 190.629 162.06 188.194 158.145 187.728Z" fill="#FFE700"/>
</g>
</g>
<path d="M110.646 153.906C101.313 159.268 92.7637 164.377 83.3485 170.46C81.6576 171.553 80.7356 174.051 82.6169 177.548C90.0464 191.361 101.295 211.204 112.653 230.813C114.741 234.418 120.087 236.353 125.073 232.93C136.747 224.917 162.278 209.118 172.959 200.999" stroke="#9DEEC7" stroke-width="1.64306"/>
</g>
<mask id="mask8_131_7421" style="mask-type:luminance" maskUnits="userSpaceOnUse" x="14" y="-18" width="486" height="274">
<path d="M499.987 -17.4961H14.6543V255.251H499.987V-17.4961Z" fill="white"/>
</mask>
<g mask="url(#mask8_131_7421)">
<path d="M58.931 81.6211C59.694 77.8652 51.8814 76.846 46.9101 80.6714" stroke="#CC348D" stroke-width="5.81389" stroke-miterlimit="10" stroke-linecap="round"/>
<path d="M55.1751 80.8577C54.7536 82.9321 56.0938 84.9552 58.1682 85.3767C60.2426 85.7981 62.2657 84.4582 62.6871 82.3838C63.1085 80.3094 61.7687 78.286 59.6943 77.8646C57.6199 77.4432 55.5965 78.7833 55.1751 80.8577Z" fill="#C6775C"/>
<path d="M49.2803 88.1155C49.7662 90.5687 53.4724 91.9013 57.5584 91.0919C61.6443 90.2825 64.5625 87.6374 64.0765 85.1842C63.5906 82.731 60.1709 78.1813 55.1959 79.1668C50.185 80.1595 48.7944 85.6623 49.2803 88.1155Z" fill="#5EC6FF"/>
<path d="M49.2794 88.1172C49.7653 90.5704 53.4716 91.9028 57.5575 91.0934C61.6434 90.2841 64.5616 87.639 64.0756 85.1858C63.5897 82.7325 59.8835 81.4001 55.7976 82.2095C51.7117 83.0189 48.7935 85.664 49.2794 88.1172Z" fill="#0084C2"/>
<path d="M55.7972 82.2094C58.115 81.7501 60.3099 81.9809 61.8647 82.7138C61.8141 84.1972 61.9554 85.9281 61.9424 86.4145C61.9424 86.4451 61.9617 86.4748 61.9628 86.5061C62.0131 88.1914 61.1484 89.662 59.5288 89.9374C58.3555 90.137 57.2287 89.618 56.5906 88.7022C56.1299 89.1322 55.5437 89.4377 54.8761 89.5512C53.0588 89.8601 51.3351 88.6378 51.0262 86.8206C50.876 85.9376 50.7571 85.4038 50.4902 84.8726C51.659 83.6548 53.5507 82.6545 55.7972 82.2094Z" fill="#FFCC76"/>
<mask id="mask9_131_7421" style="mask-type:alpha" maskUnits="userSpaceOnUse" x="29" y="81" width="54" height="76">
<path d="M48.915 88.0843C49.4104 89.8893 0.508076 161.092 55.4053 156.361C110.302 151.631 64.1226 86.5029 63.4607 84.0912C62.7987 81.6795 59.0059 80.6184 54.9892 81.7209C50.9724 82.8235 48.2531 85.6726 48.915 88.0843Z" fill="#AFD5E0"/>
</mask>
<g mask="url(#mask9_131_7421)">
<path d="M45.7078 61.8807C49.4731 63.4497 54.5916 69.2631 52.2787 70.4516C49.9657 71.6401 47.5108 64.0147 41.4061 65.654M46.19 67.8802C49.096 69.4497 51.1348 73.0164 54.0215 78.1725M45.6909 69.3575C46.9781 70.651 47.6496 71.3064 49.193 73.7294C50.7363 76.1524 52.6834 78.5011 53.5547 81.6118" stroke="#FFCC76" stroke-width="1.04852" stroke-miterlimit="10" stroke-linecap="round"/>
</g>
<path d="M55.0603 97.8496C53.2192 91.5637 46.6308 87.9604 40.3444 89.8015C34.0581 91.6426 30.4545 98.2306 32.2956 104.518C34.1367 110.804 40.7251 114.407 47.0115 112.566C53.2978 110.725 56.9014 104.137 55.0603 97.8496Z" fill="#0084C2"/>
<mask id="mask10_131_7421" style="mask-type:alpha" maskUnits="userSpaceOnUse" x="31" y="89" width="24" height="25">
<path d="M54.4486 98.6542C52.836 92.3054 46.3822 88.4662 40.0334 90.0788C33.6846 91.6915 29.8451 98.1452 31.4577 104.494C33.0703 110.842 39.5241 114.682 45.873 113.069C52.2218 111.457 56.0612 105.003 54.4486 98.6542Z" fill="#0084C2"/>
</mask>
<g mask="url(#mask10_131_7421)">
<path d="M32.9492 110.768C37.2821 110.307 41.5729 109.572 45.3386 105.326L47.1023 105.403C42.5954 110.828 37.3896 111.696 34.4855 111.86C33.9465 111.538 33.4325 111.173 32.9492 110.768Z" fill="#006AAD"/>
<path d="M47.9119 87.2712C46.7049 83.2467 42.4756 80.9515 38.4436 82.1323C34.3932 83.3188 32.071 87.564 33.2572 91.6148L35.8461 100.454C36.1408 101.46 36.8833 102.275 37.8614 102.651C41.8902 104.2 45.044 105.261 46.2344 105.652C46.5489 105.756 46.8932 105.663 47.1082 105.411C49.1218 103.051 50.2952 100.37 50.8159 98.9808C51.0453 98.3698 51.0402 97.7018 50.8525 97.0768L47.9119 87.2712Z" fill="#C6775C"/>
<path d="M48.3699 97.8416L47.6682 95.7266M42.6376 99.6566L42.1855 98.1116" stroke="white" stroke-width="5.26106" stroke-linecap="round"/>
<path d="M43.0429 98.9788C43.0429 98.9788 43.3364 99.6038 43.4004 100.241M48.0514 97.0488C48.0514 97.0488 48.1988 97.8758 48.5611 98.4398" stroke="#3D3D3D" stroke-width="2.37611" stroke-linecap="round"/>
<path d="M49.4501 97.8831C49.021 98.1131 48.8217 98.779 49.0834 99.197C50.1687 101.01 51.3507 97.1761 49.4501 97.8831ZM44.5749 99.9261C44.0618 100.085 43.7349 100.594 43.9539 101.14C44.6508 102.307 45.5309 100.056 44.5749 99.9261Z" fill="white"/>
<path d="M47.4747 95.0884C47.215 94.2484 46.3242 93.7784 45.4848 94.0384C44.6454 94.2984 44.175 95.1894 44.4347 96.0284C44.6944 96.8684 45.5854 97.3384 46.4249 97.0784C47.2643 96.8184 47.7344 95.9274 47.4747 95.0884Z" fill="#C6775C"/>
</g>
<path d="M36.1818 89.9846C40.6701 91.2564 45.7317 90.0481 46.4554 87.998" stroke="#3D3D3D" stroke-width="11.8801" stroke-linecap="round"/>
<path d="M48.8787 90.1413L48.6785 89.6858C48.3525 88.9439 47.4864 88.6069 46.7445 88.933C46.0026 89.2591 45.6654 90.1249 45.9915 90.8668L46.1917 91.3223C46.5178 92.0642 47.3838 92.4011 48.1257 92.075C48.8676 91.749 49.2048 90.8832 48.8787 90.1413Z" fill="white"/>
<path d="M52.7317 75.9338C53.5274 68.7886 48.3799 62.3513 41.2347 61.5557C34.0895 60.76 27.6522 65.9076 26.8565 73.0529C26.0608 80.1981 31.2082 86.6351 38.3535 87.4308C45.4987 88.2265 51.936 83.0791 52.7317 75.9338Z" fill="#CC348D"/>
<path d="M30.4027 79.584C30.4027 79.584 28.1885 80.2703 28.3415 81.5639C28.7101 84.6813 33.9633 86.0669 33.9633 86.0669" stroke="#CC348D" stroke-width="5.81389" stroke-linecap="round" stroke-linejoin="round"/>
<mask id="mask11_131_7421" style="mask-type:alpha" maskUnits="userSpaceOnUse" x="25" y="61" width="27" height="27">
<path d="M51.845 75.5427C52.3818 68.3734 47.005 62.1265 39.8357 61.5897C32.6663 61.0529 26.4194 66.4299 25.8826 73.5993C25.3458 80.7686 30.7226 87.0153 37.892 87.5521C45.0613 88.0889 51.3082 82.7121 51.845 75.5427Z" fill="#CC348D"/>
</mask>
<g mask="url(#mask11_131_7421)">
<path d="M56.4734 73.7597C56.1994 67.4593 52.5279 59.9774 42.0173 58.8398C31.5068 57.7022 21.4563 62.7009 22.9438 69.1769C24.102 74.22 29.0907 77.0279 40.8642 77.2237C52.0948 77.4104 56.5023 74.4244 56.4734 73.7597Z" fill="#0084C2"/>
<path d="M56.4734 73.7597C56.1994 67.4593 52.5279 59.9774 42.0173 58.8398C31.5068 57.7022 21.4563 62.7009 22.9438 69.1769C24.102 74.22 29.0907 77.0279 40.8642 77.2237C52.0948 77.4104 56.5023 74.4244 56.4734 73.7597Z" stroke="#00448E" stroke-width="2.78056"/>
</g>
<path d="M41.834 64.8585C41.834 64.8585 50.8288 62.8004 53.6915 60.9333C53.4258 57.8631 49.2349 53.3434 47.2133 50.5059" stroke="#0084C2" stroke-width="5.05556" stroke-linecap="round" stroke-linejoin="round"/>
<path d="M42.08 48.0276C42.7947 46.6884 44.1294 45.2268 45.1941 44.6172" stroke="#CC348D" stroke-width="3.53889" stroke-linecap="round" stroke-linejoin="round"/>
<path d="M41.7753 64.8344C41.7753 64.8344 55.7037 67.5281 65.5804 58.5039" stroke="#0084C2" stroke-width="5.05556" stroke-linecap="round" stroke-linejoin="round"/>
<path d="M68.8476 53.3301C69.5755 53.8102 71.3994 55.2443 72.5 56.4642" stroke="#CC348D" stroke-width="3.53889" stroke-linecap="round" stroke-linejoin="round"/>
<path d="M26.1308 88.2773L41.1819 89.8565M26.6207 90.5607L40.9894 91.3267" stroke="#DAAF83" stroke-width="1.26389" stroke-linecap="round" stroke-linejoin="round"/>
<path d="M34.1972 89.4043L36.2981 91.5221" stroke="#C6775C" stroke-width="2.275" stroke-linecap="round" stroke-linejoin="round"/>
<path d="M33.5799 90.4159L32.5342 89.3341C31.706 88.4776 31.7287 87.1116 32.5855 86.2834L33.5425 85.3583C34.3993 84.5302 35.765 84.5531 36.5931 85.4098L37.6388 86.4916C38.4669 87.3483 38.4441 88.714 37.5873 89.5421L36.6306 90.4671C35.7739 91.2953 34.4082 91.2724 33.5799 90.4159Z" fill="#C6775C"/>
</g>
<mask id="mask12_131_7421" style="mask-type:luminance" maskUnits="userSpaceOnUse" x="-1" y="-13" width="486" height="274">
<path d="M484.821 -12.4414H-0.511719V260.306H484.821V-12.4414Z" fill="white"/>
</mask>
<g mask="url(#mask12_131_7421)">
<path d="M115.338 139.472C115.766 138.587 117.903 137.841 119.418 137.537M121.121 139.569C119.339 139.789 117.071 140.079 115.885 140.758M120.918 143.106C118.335 142.21 116.577 142.464 115.41 142.86M116.301 146.598C116.301 146.598 115.25 144.388 113.486 142.746" stroke="#FFC6B7" stroke-width="3.03333" stroke-linecap="round" stroke-linejoin="round"/>
<path d="M108.303 138.791C110.854 139.38 112.042 139.704 114.179 140.509" stroke="#FFC6B7" stroke-width="9.1" stroke-linecap="round" stroke-linejoin="round"/>
<path d="M103.795 137.914C106.056 138.118 108.849 138.87 111.037 139.52" stroke="#33E3FF" stroke-width="9.1" stroke-linecap="round" stroke-linejoin="round"/>
<path d="M79.9217 102.744C78.0074 95.385 88.5451 88.1715 95.9294 92.3298C101.375 94.86 106.184 99.062 106.184 99.062C109.257 101.474 83.4438 121.937 82.4891 115.419C82.4891 115.419 81.552 107.587 79.9217 102.744Z" fill="#33E3FF"/>
<path d="M66.7073 129.854L65.3848 130.287" stroke="#393939" stroke-width="6.825" stroke-linecap="round"/>
<path d="M81.4453 147.754L82.949 149.482" stroke="#393939" stroke-width="5.81389" stroke-linecap="round" stroke-linejoin="round"/>
<path d="M101.278 94.452C105.306 92.7024 110.415 92.814 114.413 95.735L120.976 100.53C124.03 102.761 125.953 106.218 126.238 109.989L126.969 119.685C127.356 124.8 125.332 129.556 120.152 132.066C114.972 134.576 106.255 137.703 100.673 145.077C98.5343 147.902 89.5164 146.537 86.6701 145.018L77.2928 141.366C73.431 139.955 70.8808 136.26 70.9302 132.149L71.0889 118.979C71.4439 117.415 73.4856 114.38 74.8537 112.828C82.5967 104.045 91.2049 98.825 101.278 94.452Z" fill="#FFC7B8"/>
<path d="M103.746 132.638C103.079 133.351 102.2 133.326 101.605 132.77C101.01 132.214 100.925 131.338 101.592 130.625C102.258 129.913 104.129 129.743 104.292 129.895C104.454 130.047 104.412 131.926 103.746 132.638Z" fill="#EE9583"/>
<path d="M109.175 127.508C111.2 126.385 114.264 126.847 115.682 128.49C116.853 129.847 116.479 131.551 114.806 132.479L112.299 133.869C110.274 134.992 107.209 134.53 105.791 132.887C104.62 131.53 104.994 129.826 106.667 128.898L109.175 127.508ZM101.614 121.395C103.632 120.276 106.45 120.874 107.853 122.718C109.207 124.497 108.734 126.778 106.786 127.858L104.493 129.13C102.475 130.248 99.6561 129.65 98.2537 127.807C96.8999 126.027 97.3733 123.746 99.3206 122.667L101.614 121.395Z" fill="white"/>
<path d="M97.7208 123.651C99.0304 124.816 100.459 128.128 100.771 130.492L96.6782 126.849C96.48 125.297 96.4112 122.485 97.7208 123.651Z" fill="#FFC7B8"/>
<path d="M98.5585 128.434C98.8619 128.498 99.0563 128.796 98.9928 129.099C98.8752 129.659 98.8593 130.212 99.0036 130.742C99.1464 131.265 99.4562 131.803 100.046 132.325C100.278 132.531 100.299 132.885 100.093 133.117C99.888 133.35 99.5331 133.371 99.3011 133.166C98.5615 132.511 98.1258 131.789 97.9205 131.037C97.7173 130.291 97.7509 129.551 97.8939 128.869C97.9577 128.565 98.2552 128.371 98.5585 128.434Z" fill="#EE9583"/>
<path d="M105.097 124.713C105.053 125.035 104.861 125.335 104.551 125.507C104.036 125.792 103.392 125.616 103.113 125.113C103.085 125.062 103.061 125.01 103.043 124.956L101.776 125.624C100.869 126.101 100.638 127.149 101.259 127.966C101.883 128.786 103.131 129.062 104.043 128.582L105.583 127.771C106.49 127.293 106.721 126.246 106.1 125.429C105.847 125.096 105.491 124.853 105.097 124.713ZM108.903 128.797C108.86 128.817 108.817 128.839 108.775 128.863L107.447 129.598C106.467 130.142 106.238 131.137 106.908 131.938C107.491 132.635 108.783 132.837 109.636 132.365L111.543 131.307C112.357 130.856 112.547 130.031 111.991 129.366C111.744 129.069 111.388 128.849 110.987 128.714C110.906 128.981 110.718 129.224 110.444 129.376C109.914 129.67 109.264 129.512 108.992 129.022C108.952 128.95 108.923 128.874 108.903 128.797Z" fill="#4B4B4B"/>
<mask id="mask13_131_7421" style="mask-type:alpha" maskUnits="userSpaceOnUse" x="70" y="92" width="57" height="55">
<path d="M100.483 93.8703C104.502 92.0996 109.611 92.1839 113.625 95.0833L120.213 99.8433C123.279 102.057 125.22 105.504 125.525 109.274L126.309 118.966C126.722 124.078 124.724 128.845 119.557 131.383C114.391 133.921 105.691 137.095 100.148 144.498C98.0239 147.334 88.9988 146.017 86.1445 144.514L76.7478 140.912C72.8786 139.521 70.3087 135.84 70.3362 131.729L70.4246 118.558C70.7713 116.992 72.7967 113.946 74.1565 112.387C81.8526 103.562 90.4328 98.2973 100.483 93.8703Z" fill="#FFC7B8"/>
</mask>
<g mask="url(#mask13_131_7421)">
<mask id="mask14_131_7421" style="mask-type:luminance" maskUnits="userSpaceOnUse" x="-9" y="-15" width="498" height="289">
<path d="M488.288 -0.914195L-0.539877 -14.5156L-8.18359 260.196L480.644 273.797L488.288 -0.914195Z" fill="white"/>
</mask>
<g mask="url(#mask14_131_7421)">
<path d="M95.1319 108.654C93.7088 109.006 92.4194 107.957 92.2523 106.313C92.0852 104.668 93.1036 103.05 94.5267 102.697C95.9498 102.345 97.2392 103.394 97.4063 105.038C97.5735 106.683 96.555 108.301 95.1319 108.654Z" fill="#FFC7B8"/>
<path d="M108.048 144.078C108.048 144.078 93.211 158.707 88.3948 156.854L67.1692 142.683C63.3074 141.271 63.6804 113.808 65.9933 111.38L77.9796 103.257L78.0295 103.222L79.6004 102.158L80.6169 130.644L108.048 144.078Z" fill="#0084C2"/>
<path d="M77.884 104.366C79.5025 102.908 86.2631 98.6289 86.2631 98.6289C86.1714 98.8209 86.082 99.0159 85.9952 99.2119C85.8884 99.4539 85.7854 99.6989 85.6858 99.9469C81.3171 110.813 83.8702 126.941 84.2855 127.722C87.934 134.583 108.614 141.964 110.002 141.679L105.514 145.482C98.5278 145.846 82.7274 138.628 79.6397 134.378C76.9464 130.672 76.9089 110.294 77.884 104.366Z" fill="#33E3FF"/>
<path d="M101.181 115.339C102.936 114.367 105.093 114.49 106.727 115.655L122.28 126.747C123.379 127.531 123.367 129.164 122.243 129.911C120.939 130.778 116.982 133.078 116.399 133.348C115.703 133.669 115.327 134.357 115.315 135.042L120.186 138.819C124.75 136.395 133.104 126.74 132.719 121.587C132.719 121.587 134.268 103.944 131.265 101.747C131.265 101.747 109.747 86.9227 105.34 89.2621L97.2729 92.5196L96.9611 92.6456L93.9242 115.993C93.8043 117.034 94.4553 118.01 95.4632 118.3C95.6194 118.345 101.181 115.339 101.181 115.339Z" fill="url(#paint0_linear_131_7421)"/>
</g>
</g>
<path d="M119.937 114.578C116.814 115.54 114.199 113.493 113.207 110.279C112.215 107.064 113.222 103.9 116.345 102.938C119.468 101.975 122.371 103.933 123.363 107.148C124.355 110.362 123.06 113.615 119.937 114.578ZM123.469 123.051C119.868 123.875 116.245 121.447 115.377 117.628C114.509 113.809 116.725 110.045 120.326 109.222C123.928 108.398 127.551 110.826 128.419 114.644C129.286 118.463 127.071 122.227 123.469 123.051Z" fill="#FF9500"/>
<path d="M76.7429 116.596C77.5957 118.975 79.3138 119.457 80.3593 119.184C81.7584 118.996 82.9313 117.415 82.9368 115.254C82.9482 110.88 81.5408 106.784 80.4059 104.032C79.3804 101.545 76.6673 100.719 74.8882 101.394C73.1202 102.064 71.4491 103.952 72.5623 106.449C73.8708 109.384 75.8901 114.217 76.7429 116.596Z" fill="#33E3FF"/>
<path d="M72.0967 102.409C73.5718 100.423 76.167 99.7698 78.4616 101.368C80.4838 102.776 81.1508 105.374 79.5472 107.455C78.0841 109.354 75.4771 109.984 73.212 108.434C70.9054 106.856 70.6216 104.395 72.0967 102.409Z" fill="#FFC6B7"/>
<path d="M76.2172 103.838C75.3701 104.224 74.5557 105.167 74.5847 105.81" stroke="#EE9583" stroke-width="0.959544" stroke-linecap="round"/>
<path d="M77.9854 102.441C78.0252 101.385 78.4175 100.382 78.1544 99.3972M73.1646 98.3262C74.6685 98.6482 76.0972 100.539 76.0201 101.44M70.3642 100.089C71.3859 100.468 73.9488 101.616 73.892 103.126M69.4863 103.382C70.6022 103.054 72.1416 103.945 72.5764 105.163" stroke="#FFC6B7" stroke-width="3.03333" stroke-linecap="round" stroke-linejoin="round"/>
</g>
<mask id="mask15_131_7421" style="mask-type:luminance" maskUnits="userSpaceOnUse" x="14" y="-18" width="486" height="274">
<path d="M499.987 -17.4961H14.6543V255.251H499.987V-17.4961Z" fill="white"/>
</mask>
<g mask="url(#mask15_131_7421)">
<path d="M161.07 125.469C156.003 149.257 163.46 161.034 179.44 165.768C200.497 172.007 216.281 158.756 222.962 146.283C228.022 136.836 229.977 127.896 230.527 116.794C231.078 105.692 228.595 94.4355 219.058 90.1101C214.715 88.1405 210.153 87.7797 206.706 89.127C201.363 91.215 199.141 92.3514 197.146 93.2825C196.052 93.7925 164.002 111.707 161.07 125.469ZM157.335 124.267C152.268 148.055 163.46 161.034 179.44 165.768C200.497 172.007 214.021 156.603 218.811 143.288C235.164 97.8355 199.141 92.3511 197.146 93.2825C196.052 93.7925 194.817 93.9315 193.639 93.6675C190.156 92.8863 186.057 90.2149 180.127 87.7995C172.52 84.7016 162.394 88.4536 161.392 98.3365C161.392 98.3365 160.267 110.505 157.335 124.267Z" fill="#58CC02"/>
<path d="M189.771 122.495C182.658 133.831 168.823 139.394 155.46 136C142.097 132.606 132.53 121.101 131.598 107.721C131.404 104.937 133.986 102.786 136.697 103.475L187.278 116.32C189.989 117.009 191.251 120.135 189.771 122.495Z" fill="#58CC02"/>
<path d="M188.348 123.787C189.533 137.117 199.33 148.358 212.776 151.407C226.222 154.456 239.973 148.554 246.882 137.058C248.32 134.666 246.997 131.578 244.269 130.959L193.376 119.419C190.648 118.8 188.102 121.012 188.348 123.787Z" fill="#58CC02"/>
<path d="M170.577 158.883L168.771 152.039" stroke="#F49000" stroke-width="8.84722" stroke-linecap="round" stroke-linejoin="round"/>
<path d="M203.389 171.126L209.339 167.25" stroke="#F49000" stroke-width="8.84722" stroke-linecap="round" stroke-linejoin="round"/>
<mask id="mask16_131_7421" style="mask-type:alpha" maskUnits="userSpaceOnUse" x="156" y="84" width="75" height="83">
<path d="M157.695 123.465C152.593 147.245 163.767 160.241 179.739 164.999C200.788 171.269 214.335 155.884 219.144 142.577C235.564 97.1468 199.723 92.1287 197.667 92.9182C196.54 93.3508 195.298 93.4028 194.142 93.0578C190.722 92.0349 186.907 89.2721 181.325 86.1336C174.284 82.1741 162.993 85.5326 162.785 95.4618C162.785 95.4618 160.647 109.707 157.695 123.465ZM161.429 124.673C156.327 148.453 163.767 160.241 179.739 164.999C200.788 171.269 216.591 158.041 223.291 145.578C228.364 136.138 230.588 118.705 230.588 118.705C231.764 108.032 229.591 96.2648 220.086 91.269C215.758 88.994 211.234 87.9296 207.594 89.0271C201.952 90.7281 199.723 92.1287 197.667 92.9182C196.54 93.3508 164.381 110.915 161.429 124.673Z" fill="#58CC02"/>
</mask>
<g mask="url(#mask16_131_7421)">
<path d="M187.834 142.942C188.121 145.159 189.831 147.002 192.095 147.468C194.359 147.934 196.613 146.907 197.689 144.97C197.913 144.567 197.672 144.056 197.212 143.962L188.391 142.716C187.932 142.625 187.774 142.48 187.834 142.942ZM202.628 145.939C203.206 148.094 205.144 149.672 207.448 149.807C209.752 149.942 211.849 148.6 212.658 146.526C212.826 146.095 212.519 145.624 212.052 145.597L203.331 145.086C202.863 145.059 202.508 145.491 202.628 145.939ZM193.601 151.103C193.979 153.216 195.762 154.907 198.043 155.257C200.324 155.606 202.535 154.527 203.531 152.625C203.738 152.229 203.476 151.75 203.013 151.679L194.632 150.166C194.169 150.092 193.523 150.664 193.601 151.103ZM187.751 133.807C193.384 134.121 198.422 131.046 200.873 126.355C202.941 126.463 204.44 126.538 205.368 126.587C207.017 126.675 208.366 126.749 209.416 126.808C210.849 131.728 214.093 135.208 218.507 135.531C223.708 135.912 228.89 129.862 229.484 122.241C229.932 116.487 229.99 113.646 229.573 110.552C229.125 107.233 227.88 104.845 225.989 103.12C225.873 100.113 223.525 97.4952 222.414 97.4672C221.789 97.4512 221.882 97.6922 221.938 101.061C220.834 96.5632 218.479 95.1752 217.445 94.4022C216.151 93.4342 214.627 92.9566 214.564 95.0352C214.534 96.0242 213.77 106.849 207.505 107.073C206.913 107.095 206.534 107.095 205.788 107.021C201.9 106.632 194.539 98.4252 191.673 95.0492C189.89 92.9481 188.747 93.3422 188.302 94.0092C187.291 95.5232 186.925 97.1122 187.15 98.7252L184.756 95.7112C184.285 95.1202 183.375 95.1552 182.956 95.7822C181.867 97.4132 181.415 99.3432 181.603 101.234C177.863 103.541 175.276 107.579 175.011 112.297L174.628 119.14C174.199 126.811 180.074 133.379 187.751 133.807Z" fill="#89E219"/>
</g>
<path d="M199.129 126.006C199.279 123.325 201.574 121.274 204.255 121.424C206.785 121.565 208.781 123.626 208.843 126.159L208.875 132.716C208.949 135.733 206.432 138.171 203.419 138.002C200.569 137.843 198.388 135.403 198.547 132.553L199.129 126.006Z" fill="#F49000"/>
<path d="M200.851 126.506C200.792 124.432 202.52 122.751 204.591 122.867C206.43 122.97 207.883 124.464 207.935 126.304L207.989 132.579C208.049 134.652 206.321 136.333 204.25 136.217C202.411 136.114 200.958 134.621 200.906 132.78L200.851 126.506Z" fill="#B16900"/>
<path d="M200.783 128.494C200.826 128.495 200.868 128.497 200.911 128.499C204.104 128.678 206.548 131.412 206.37 134.605C206.347 135.005 206.284 135.394 206.186 135.767C205.618 136.088 204.953 136.256 204.249 136.216C202.411 136.113 200.957 134.62 200.905 132.779L200.783 128.494Z" fill="#FFB8D1"/>
<path d="M212.123 126.905C212.157 127.092 212.047 127.274 211.868 127.339L209.287 127.458L198.856 126.531C198.622 126.491 198.471 126.261 198.543 126.035C199.488 123.058 202.353 120.826 205.616 121.008C208.918 121.193 211.558 123.788 212.123 126.905Z" fill="#FFC200"/>
<path d="M204.659 123.924C204.129 124.129 203.549 123.847 203.355 123.321C203.162 122.794 203.42 122.173 203.959 122.017C205.01 121.711 206.306 121.724 207.343 122.182C207.856 122.409 208.101 122.997 207.882 123.514C207.663 124.031 207.071 124.263 206.55 124.052C206.104 123.872 205.189 123.719 204.659 123.924Z" fill="#FFDE00"/>
<path d="M179.308 118.617C179.009 123.957 183.096 128.529 188.437 128.827C193.777 129.126 198.349 125.039 198.647 119.699L198.952 114.26C199.25 108.919 195.163 104.348 189.823 104.049C184.482 103.75 179.911 107.837 179.612 113.178L179.308 118.617ZM212.048 120.448C211.749 125.789 214.827 130.304 218.922 130.533C223.017 130.762 226.579 126.618 226.878 121.278L227.182 115.839C227.481 110.498 224.403 105.984 220.308 105.754C216.213 105.525 212.651 109.669 212.352 115.009L212.048 120.448Z" fill="white"/>
<path d="M220.827 119.543C220.639 122.043 218.885 123.95 216.908 123.801C214.932 123.653 213.48 121.504 213.667 119.006L214.031 114.178C217.196 115.81 219.166 111.545 217.019 109.964C217.186 109.895 217.666 109.862 217.95 109.919C220.387 110.401 221.385 112.828 221.107 115.822C220.883 118.216 220.827 119.543 220.827 119.543ZM196.798 118.319C196.719 120.827 194.624 122.794 192.119 122.715C189.614 122.636 187.647 120.541 187.723 118.036L187.874 113.195C191.292 114.547 192.706 110.77 191.654 108.861C191.947 108.812 192.248 108.789 192.556 108.799C193.039 108.816 193.502 108.906 193.934 109.059C196.416 110.084 196.961 112.861 196.916 114.588C196.871 116.314 196.798 118.319 196.798 118.319Z" fill="#4B4B4B"/>
<path d="M220.249 103.898C226.818 104.362 227.896 107.768 228.159 109.816C228.714 114.131 227.584 109.567 227.584 109.567C223.338 103.099 215.485 103.385 211.128 112.684C210.045 107.531 211.221 112.98 211.777 109.279C212.332 105.579 215.569 103.567 220.249 103.898ZM225.305 131.105C223.765 131.852 223.198 132.927 219.516 133.653C215.834 134.379 216.755 134.392 216.186 134.482C217.133 133.949 223.702 131.915 225.305 131.105ZM189.703 102.902C197.526 102.812 200.115 108.063 199.987 112.418C199.858 116.773 199.893 112.735 199.893 112.735C197.93 100.361 184.659 100.509 179.332 108.378C179.36 106.344 178.643 113.842 179.042 110.104C179.44 106.365 184.128 102.966 189.703 102.902ZM190.997 132.002C194.19 131.522 195.2 131.331 189.153 132.473C184.284 133.393 181.108 131.165 178.811 128.35C180.221 129.965 185.344 132.358 190.997 132.002Z" fill="#8EDF00"/>
</g>
<mask id="mask17_131_7421" style="mask-type:luminance" maskUnits="userSpaceOnUse" x="14" y="-18" width="486" height="274">
<path d="M499.987 -17.4961H14.6543V255.251H499.987V-17.4961Z" fill="white"/>
</mask>
<g mask="url(#mask17_131_7421)">
<path d="M190.204 21.2852C188.644 21.2969 187.39 22.5844 187.402 24.161C187.414 25.7376 188.687 27.0061 190.247 26.9944C191.807 26.9826 193.062 25.6949 193.05 24.1184C193.038 22.5418 191.764 21.2734 190.204 21.2852Z" fill="#FFCBA3"/>
<path d="M186.746 23.2851C188.486 22.2232 189.803 22.8609 190.486 23.8157C191.169 24.7705 191.282 26.4864 189.663 27.5576C188.044 28.6288 184.561 31.7751 182.275 34.2662C181.398 35.2222 179.491 35.568 178.175 34.2158C176.859 32.8637 177.49 31.0047 178.291 30.0095C179.911 27.9972 185.006 24.3469 186.746 23.2851Z" fill="#FFB100"/>
<path d="M193.864 52.3012C193.883 54.7181 195.857 56.6628 198.274 56.6446C200.691 56.6264 202.636 54.6521 202.617 52.2351C202.599 49.8181 200.625 47.8732 198.208 47.8914C195.791 47.9096 193.846 49.8842 193.864 52.3012ZM198.937 49.8473C202.33 46.8042 202.613 41.5868 199.57 38.1943L193.793 31.4901C190.75 28.0974 185.533 27.8142 182.14 30.8575C178.543 34.0842 178.476 39.6973 181.994 43.0092L182.248 43.1581C183.23 44.0829 184.133 45.0893 184.946 46.1661L186.841 48.6765C189.752 52.5333 195.34 53.0739 198.937 49.8473Z" fill="#3D3D3D"/>
<path d="M195.309 29.3231C194.781 29.5597 194.546 30.1841 194.785 30.7182C195.024 31.2522 196.546 32.0867 196.546 32.0867C196.546 32.0867 196.937 30.3959 196.698 29.8618C196.459 29.328 195.838 29.0869 195.309 29.3231Z" fill="#E89665"/>
<path d="M182.519 29.8557C187.941 26.6704 194.918 28.4839 198.103 33.9061C201.289 39.3283 199.475 46.3057 194.053 49.491L186.707 53.8069L175.172 34.1716L182.519 29.8557Z" fill="#FFCBA3"/>
<path d="M190.422 34.723C195.565 41.627 195.884 57.7452 178.498 63.677L169.489 49.2108L160.879 33.6221C174.185 26.1722 183.893 25.9592 190.422 34.723Z" fill="#FFB100"/>
<path d="M181.089 33.4465C180.563 33.9732 180.628 34.8909 181.235 35.4963C181.841 36.1017 182.759 36.1653 183.285 35.6385C183.811 35.1118 183.745 34.1944 183.139 33.589C182.532 32.9836 181.615 32.9198 181.089 33.4465ZM189.309 31.3565C183.038 34.7872 177.488 29.2991 179.86 28.1484C180.862 28.202 182.274 28.6894 183.476 29.0774C185.929 28.8016 188.034 30.0357 189.309 31.3565ZM193.207 39.1137C188.458 41.5732 182.233 33.8293 187.36 30.892C188.637 31.6566 192.072 34.6957 193.207 39.1137Z" fill="white"/>
<path d="M173.354 46.738C178.235 55.0476 180.975 62.2345 178.606 63.6267C176.236 65.019 170.967 59.1635 166.085 50.8538C161.204 42.5442 158.558 34.9271 160.928 33.5348C163.298 32.1426 168.472 38.4284 173.354 46.738ZM183.462 29.0766C179.208 29.3365 173.305 31.4852 169.218 33.5911C168.558 33.931 167.769 33.8778 167.155 33.4608C166.425 32.9646 165.712 32.0695 164.59 31.6632C172.287 27.9448 178.477 27.0621 183.462 29.0766ZM192.315 38.2509C194.897 45.0695 193.778 55.4264 183.66 61.3451C184.658 57.606 180.903 50.3199 179.439 46.8402C179.033 45.8741 179.429 44.7579 180.355 44.2676C182.87 42.9364 188.477 39.7412 192.315 38.2509Z" fill="#FF9500"/>
<path d="M185.116 28.7171C187.089 27.7808 194.422 27.9783 197.929 33.9891C201.099 39.4203 199.301 46.3887 193.879 49.574C193.879 49.574 193.324 49.9789 192.825 50.2402C196.195 36.8124 186.981 30.1199 183.807 29.1957C184.128 28.9407 185.116 28.7171 185.116 28.7171Z" fill="#FFCBA3"/>
<path d="M199.06 35.8125C200.535 40.0504 199.466 44.9792 196.137 48.0256C195.09 43.4505 195.62 38.25 199.06 35.8125Z" fill="#9F9F9F"/>
<path d="M191.561 33.0643L191.25 33.903C190.958 34.6934 191.384 35.5549 192.203 35.8271C193.022 36.0994 193.924 35.6791 194.216 34.8887L194.527 34.05C194.82 33.2595 194.394 32.3981 193.575 32.1259C192.756 31.8536 191.854 32.2737 191.561 33.0643Z" fill="#B23232"/>
<mask id="mask18_131_7421" style="mask-type:alpha" maskUnits="userSpaceOnUse" x="191" y="31" width="5" height="5">
<path d="M192.376 32.6958L192.011 33.5078C191.667 34.2729 192.017 35.1657 192.793 35.502C193.569 35.8382 194.476 35.4905 194.82 34.7254L195.184 33.9135C195.528 33.1483 195.178 32.2556 194.402 31.9193C193.627 31.583 192.719 31.9306 192.376 32.6958Z" fill="#B23232"/>
</mask>
<g mask="url(#mask18_131_7421)">
<path d="M193.015 34.5308C192.4 34.5804 191.891 34.9632 191.652 35.4873C191.817 35.7308 192.055 35.9287 192.349 36.0448C193.127 36.3519 194.007 35.9702 194.314 35.192L194.364 35.0654C194.034 34.7009 193.543 34.4881 193.015 34.5308Z" fill="#F14C4C"/>
</g>
<mask id="mask19_131_7421" style="mask-type:alpha" maskUnits="userSpaceOnUse" x="184" y="27" width="16" height="23">
<path d="M185.608 28.337C187.588 27.4157 194.919 27.6684 198.381 33.7055C201.51 39.1605 199.659 46.1151 194.213 49.2594C194.213 49.2594 193.655 49.6601 193.154 49.9177C196.625 36.5157 187.462 29.7538 184.295 28.8057C184.618 28.5532 185.608 28.337 185.608 28.337Z" fill="#FFCBA3"/>
</mask>
<g mask="url(#mask19_131_7421)">
<path d="M197.461 28.3736C196.798 27.1995 195.988 26.4021 195.65 26.5926C195.638 26.5995 195.208 26.8486 195.196 26.8555C194.874 27.0371 195.18 28.1705 195.819 29.3017C196.457 30.4327 197.268 31.2815 197.59 31.0999C197.603 31.093 198.037 30.8516 198.049 30.8446C198.387 30.6542 198.123 29.5477 197.461 28.3736ZM200.459 33.7216C199.796 32.5475 198.986 31.75 198.648 31.9405C198.636 31.9475 198.206 32.1963 198.194 32.2032C197.872 32.3848 198.178 33.5183 198.817 34.6495C199.455 35.7806 200.266 36.6292 200.588 36.4476C200.6 36.4407 201.035 36.1993 201.047 36.1923C201.384 36.0019 201.121 34.8956 200.459 33.7216Z" fill="white"/>
<path d="M200.01 33.2159C199.692 32.6535 199.304 32.2715 199.142 32.3627C199.136 32.3661 198.829 32.5205 198.823 32.5238C198.669 32.6108 198.816 33.154 199.121 33.6958C199.427 34.2376 199.816 34.6441 199.97 34.5571C199.976 34.5538 200.286 34.403 200.292 34.3996C199.789 33.7827 199.632 33.1292 200.01 33.2159ZM197.671 29.0289C197.354 28.4664 196.966 28.0844 196.804 28.1756C196.798 28.179 196.49 28.3335 196.484 28.3368C196.33 28.4238 196.477 28.9669 196.783 29.5087C197.088 30.0505 197.477 30.4572 197.632 30.3702C197.637 30.3669 197.947 30.2161 197.953 30.2127C197.451 29.5958 197.293 28.9421 197.671 29.0289Z" fill="#4B4B4B"/>
<path d="M202.126 38.7268L200.931 37.1566L201.721 38.9787M193.988 24.4277L194.63 25.8587L193.557 24.4312" stroke="#E89665" stroke-width="0.353576" stroke-linecap="round" stroke-linejoin="round"/>
</g>
<path d="M207.677 38.5625C205.874 38.5762 204.422 40.0652 204.436 41.8885C204.45 43.7118 205.923 45.1787 207.727 45.1651C209.531 45.1515 210.982 43.6625 210.968 41.8392C210.955 40.0159 209.481 38.5489 207.677 38.5625Z" fill="#FFCBA3"/>
<path d="M204.244 39.2113C206.602 39.0634 207.276 40.555 207.407 41.9062C207.538 43.2574 207.162 44.9458 204.924 45.1687C202.685 45.3916 196.325 46.4956 193.115 47.167C191.825 47.4301 190.004 46.7535 189.617 44.866C189.23 42.9785 190.796 41.7271 192.033 41.3124C194.534 40.4742 201.886 39.3591 204.244 39.2113Z" fill="#FFB100"/>
<path d="M163.173 44.5156C163.173 44.5156 161.492 45.2403 160.303 46.3756" stroke="#FF9500" stroke-width="3.03333" stroke-linecap="round" stroke-linejoin="round"/>
<path d="M168.325 53.7441C168.325 53.7441 166.727 55.1214 165.84 56.4833" stroke="#FF9500" stroke-width="3.03333" stroke-linecap="round" stroke-linejoin="round"/>
<path d="M204.674 23.2314L203.039 22.3613M203.127 25.7821L201.711 24.9543M203.276 27.4556C200.502 29.2583 198.705 26.6949 197.98 27.2442" stroke="#00BDFF" stroke-width="1.76944" stroke-linecap="round" stroke-linejoin="round"/>
<path d="M216.435 31.0775C216.959 31.2142 217.414 30.6939 217.209 30.193L216.64 28.8029L214.982 30.6986L216.435 31.0775ZM217.617 28.8654C218.074 28.5755 218.004 27.8878 217.498 27.6963L216.093 27.1643L216.348 29.6697L217.617 28.8654ZM211.272 32.1967C213.723 32.8618 216.249 31.4139 216.914 28.9627C217.58 26.5113 216.131 23.985 213.68 23.3199C213.68 23.3199 210.78 22.5557 208.734 21.541C206.688 20.5262 203.723 21.0086 202.446 23.2042C201.169 25.3997 202.009 28.1602 204.11 29.4917C206.21 30.8232 211.272 32.1967 211.272 32.1967Z" fill="#00BDFF"/>
<path d="M211.557 30.1416C212.366 30.439 213.263 30.0244 213.56 29.2155L214.202 27.468C214.499 26.6592 214.085 25.7627 213.276 25.4654C212.467 25.168 211.57 25.5827 211.273 26.3915L210.631 28.1387C210.334 28.9476 210.748 29.8443 211.557 30.1416Z" fill="white"/>
<path d="M213.01 27.7433C212.865 27.8051 212.803 27.9759 212.873 28.1167L213.064 28.5023C213.171 28.7173 213.484 28.7001 213.566 28.4748L213.77 27.9198C213.853 27.6945 213.627 27.4791 213.406 27.5736L213.01 27.7433Z" fill="#FFA3A3"/>
<path d="M214.008 29.1399C213.954 28.8271 214.163 28.5295 214.476 28.4753C214.789 28.4214 215.087 28.6309 215.141 28.9438C215.195 29.2567 214.985 29.554 214.673 29.6082C214.36 29.6624 214.062 29.4528 214.008 29.1399ZM214.344 28.1925C214.29 27.8796 214.5 27.5823 214.813 27.5281C215.125 27.4739 215.423 27.6837 215.477 27.9966C215.531 28.3095 215.322 28.6068 215.009 28.661C214.696 28.715 214.398 28.5054 214.344 28.1925Z" fill="#00729A"/>
</g>
<mask id="mask20_131_7421" style="mask-type:luminance" maskUnits="userSpaceOnUse" x="-1" y="-13" width="486" height="274">
<path d="M484.821 -12.4414H-0.511719V260.306H484.821V-12.4414Z" fill="white"/>
</mask>
<g mask="url(#mask20_131_7421)">
<path d="M80.141 184.167C79.0478 183.074 77.2756 183.074 76.1828 184.168L72.042 188.31C70.9492 189.404 70.9495 191.176 72.043 192.269L73.0976 193.323C75.2777 195.44 76.8917 194.269 79.5936 192.222C82.0961 190.06 83.5329 187.733 81.5459 185.609L80.141 184.167Z" fill="#4CC5FF"/>
<path d="M77.4091 188.815C79.2519 187.063 79.5561 185.216 78.5966 184.194C77.0952 182.595 73.5515 179.138 71.1701 177.408C69.5842 176.255 64.1976 174.144 58.5585 172.991C56.0672 172.482 53.6352 174.088 53.1255 176.579C52.6161 179.07 54.223 181.503 56.7139 182.012C59.7735 182.639 64.8601 184.483 65.8513 184.936C66.6272 185.625 70.0348 188.521 71.8968 190.511C73.0983 191.794 75.7449 190.397 77.4091 188.815Z" fill="#5ACD05"/>
<path d="M85.8463 191.957C84.0342 193.843 80.8887 193.598 80.8887 193.598" stroke="#FF4B4B" stroke-width="3.22721" stroke-linecap="round"/>
<path d="M64.5767 157.218L58.7031 166.736C57.7299 168.115 55.823 168.443 54.4442 167.47C53.0655 166.497 52.7366 164.591 53.71 163.212L61.165 155.273C61.7025 154.33 62.9017 154.002 63.8438 154.54C64.7858 155.077 65.1141 156.276 64.5767 157.218Z" fill="#A46648"/>
<path d="M66.562 154.919L64.3969 155.788M65.0214 152.199L64.5634 154.397M63.4698 151.992L63.4911 154.621M61.877 153.05L62.3814 154.604" stroke="#A46648" stroke-width="1.75231" stroke-linecap="round" stroke-linejoin="round"/>
<path d="M49.3709 150.658L42.9763 145.739C40.6407 143.946 37.2934 144.384 35.4997 146.72L33.7597 148.985C31.9661 151.321 32.4053 154.668 34.7408 156.462L36.7666 158.018C39.1022 159.812 42.4496 159.373 44.2434 157.037L49.3709 150.658ZM47.0049 149.209L50.4436 160.704L57.3711 158.473C59.8978 157.593 61.2329 154.831 60.3529 152.304L59.4991 149.853C58.6193 147.326 55.8575 145.992 53.3307 146.872L47.0049 149.209ZM40.4916 154.146C40.1367 156.798 53.2039 158.546 53.5588 155.894L54.6981 147.378C55.0527 144.726 53.1905 142.289 50.5382 141.934L47.0753 141.471C44.4229 141.116 41.9855 142.978 41.6306 145.63L40.4916 154.146Z" fill="#3D3D3D"/>
<path d="M45.583 167.974L55.0308 165.042C57.143 164.387 58.4463 162.272 58.0818 160.09L57.063 153.992C56.8017 152.611 55.7811 151.498 54.4292 151.118L47.465 149.16C45.8297 148.7 44.0728 149.098 42.7957 150.218L39.8489 153.543C38.2653 155.33 37.7395 157.818 38.4647 160.093L40.0483 165.059C40.7713 167.393 43.2496 168.698 45.583 167.974Z" fill="#A46648"/>
<path d="M38.7487 160.983L38.4647 160.092C37.7395 157.817 38.2653 155.329 39.8489 153.542L42.7956 150.217C44.0728 149.098 45.8297 148.699 47.465 149.159L51.0808 150.176C48.1761 150.813 42.582 152.91 38.7487 160.983ZM51.0808 150.176L54.4292 151.117C55.7811 151.498 56.8017 152.61 57.063 153.991L57.4138 156.09C55.4051 153.058 51.0808 150.176 51.0808 150.176ZM50.9086 149.809C50.8467 149.983 50.9662 150.155 51.1491 150.182C52.7921 150.419 54.6927 149.538 55.117 147.62C55.1568 147.439 55.0609 147.259 54.8765 147.247C52.4326 147.089 51.3736 148.503 50.9086 149.809ZM51.0537 150.161C51.2279 150.223 51.4103 150.105 51.4261 149.921C51.5163 148.864 51.409 146.825 48.8645 145.953C48.6896 145.893 48.5071 146.009 48.4918 146.193C48.3299 148.126 49.2088 149.503 51.0537 150.161Z" fill="#FDB02A"/>
<path d="M39.1256 158.499C39.513 159.57 40.6942 160.123 41.7646 159.736C42.835 159.348 43.3885 158.167 43.0011 157.097C42.6138 156.026 41.4325 155.473 40.3621 155.86C39.2918 156.248 38.7382 157.429 39.1256 158.499Z" fill="#A46648"/>
<path d="M51.5017 154.78C51.4556 153.782 50.594 152.909 49.6108 152.865C48.6274 152.82 47.9218 153.622 48.0629 154.624L48.3378 156.579C48.4624 157.464 49.2434 158.191 50.1123 158.23C50.981 158.269 51.7441 157.914 51.7036 157.032L51.5017 154.78Z" fill="white"/>
<path d="M51.9164 157.889C51.5204 157.216 49.023 156.285 47.9629 156.461L48.9343 158.866C50.4947 159.254 51.9164 157.889 51.9164 157.889Z" fill="#A46648"/>
<path d="M55.5963 156.636C54.5408 155.79 53.4219 156.716 53.4219 156.716" stroke="#86401F" stroke-width="1.01111" stroke-linecap="round"/>
<path d="M52.3274 156.803C52.302 156.806 51.799 157.647 51.834 157.984C51.869 158.321 52.1705 158.565 52.5072 158.53C52.8439 158.495 53.0884 158.194 53.0534 157.858C53.0183 157.521 52.3527 156.8 52.3274 156.803ZM52.4026 158.606L52.9315 158.658C53.2785 158.691 53.5869 158.437 53.6205 158.09C53.6541 157.743 53.3998 157.435 53.0529 157.401L52.524 157.35C52.1773 157.316 51.8686 157.571 51.835 157.918C51.8014 158.265 52.0556 158.573 52.4026 158.606Z" fill="#86401F"/>
<path d="M48.5173 159.331C48.8537 160.845 51.3497 162.046 53.212 161.05C53.7622 160.756 53.588 159.994 53.0083 159.763C52.214 159.447 51.5218 158.956 50.8901 158.304C50.2583 157.653 49.4319 157.45 48.8919 158.046C48.6091 158.358 48.3958 158.784 48.5173 159.331Z" fill="#A41414"/>
<path d="M49.4863 154.549L49.5443 155.805" stroke="#3D3D3D" stroke-width="1.54068" stroke-linecap="round"/>
<path d="M51.1291 160.51C51.4999 159.93 51.1392 159.037 50.3233 158.515C49.7881 158.173 49.1905 158.075 48.7378 158.212C48.5351 158.501 48.4161 158.868 48.5039 159.321C48.6845 160.252 49.5692 160.776 49.9695 160.969C50.4634 161.016 50.9046 160.86 51.1291 160.51Z" fill="#E64340"/>
<path d="M49.8218 158.706C49.9195 159.036 50.1375 159.333 50.4577 159.522C51.0126 159.85 51.7004 159.756 52.1474 159.335C51.6892 159.058 51.4373 158.887 50.8768 158.296C50.3164 157.705 49.4184 157.442 48.8784 158.038C48.8037 158.12 48.7346 158.211 48.6758 158.309C48.7587 158.399 49.039 158.894 49.8218 158.706Z" fill="#E7E7E7"/>
<path d="M48.3036 175.947L49.9607 176.804C53.0287 178.39 56.8017 177.189 58.3878 174.121L59.2444 172.463C60.8136 169.428 59.6253 165.696 56.5905 164.127C52.6071 162.068 47.7086 163.627 45.6492 167.611C44.0802 170.646 45.2686 174.378 48.3036 175.947ZM48.7207 173.454L56.9747 170.826L55.3633 165.765C54.6375 163.485 52.2017 162.226 49.9224 162.952C47.6432 163.678 46.3837 166.113 47.1095 168.393L48.7207 173.454Z" fill="#FDB02A"/>
<path d="M50.2152 171.486C47.8722 174.643 48.5321 179.101 51.6889 181.444C54.8458 183.787 59.3042 183.127 61.6471 179.97C63.9901 176.814 63.3302 172.355 60.1734 170.012C57.0165 167.669 52.5581 168.329 50.2152 171.486Z" fill="#5ACD05"/>
<path d="M39.9013 171.517L38.9358 165.215M37.6137 171.324L34.3184 167.802" stroke="#A46648" stroke-width="3.28611" stroke-linecap="round" stroke-linejoin="round"/>
<path d="M48.0379 171.866L44.6519 176.953L37.2184 170.48C37.2184 170.48 44.547 168.859 45.2136 168.772C45.9984 168.624 46.8836 168.471 47.5513 168.998C48.4249 169.687 48.6352 170.926 48.0379 171.866ZM34.8601 173.823L34.8752 173.719C35.0865 172.284 35.7995 171.049 36.7954 170.187C37.8988 169.232 39.3492 168.736 40.8494 168.937C43.7036 169.319 45.4957 172.046 45.0544 175.042L45.0394 175.145C44.5981 178.14 42.0764 180.373 39.2221 179.99C36.3678 179.607 34.4151 176.846 34.8601 173.823Z" fill="#A46648"/>
<path d="M43.7776 172.811L40.8037 170.858C40.0496 170.363 39.0189 170.537 38.5015 171.247C37.9842 171.957 38.1762 172.934 38.9303 173.429L41.9043 175.381" stroke="#86401F" stroke-width="1.01111" stroke-linecap="round"/>
<path d="M55.9111 182.053C58.1569 182.322 60.3827 181.047 61.2256 178.838C61.5407 178.012 61.9442 177.02 62.4525 176.011C63.9443 177.287 64.3951 178.873 65.5996 180.491C67.2652 182.728 70.4287 183.191 72.6654 181.525C74.9018 179.859 75.3651 176.695 73.6995 174.459C73.6287 174.364 71.5524 172.09 69.5517 169.888C65.5955 165.536 63.2741 163.754 60.7743 163.985C59.4576 164.106 58.2452 164.716 57.3726 165.681C54.4426 168.811 52.7837 172.629 51.7885 175.236C50.7937 177.842 52.1 180.761 54.7061 181.756C55.103 181.907 55.5077 182.005 55.9111 182.053Z" fill="#5ACD05"/>
<path d="M65.4276 179.572L62.6135 175.598C62.6135 175.598 60.8516 181.02 58.8516 181.512" stroke="#0395DB" stroke-width="1.01111" stroke-linecap="round" stroke-linejoin="round"/>
<path d="M67.7802 184.106C68.5069 185.079 71.0766 184.387 73.52 182.562C75.9634 180.736 77.3548 178.468 76.6281 177.495C76.4408 177.244 74.2354 174.345 73.7734 173.756C73.0296 172.807 70.4517 173.57 68.1092 175.28C65.7668 176.99 64.3035 179.284 65.0111 180.344C65.7188 181.403 67.6824 183.976 67.7802 184.106Z" fill="#5EC6FF"/>
<path d="M75.2473 177.707C74.1537 177.825 72.688 178.47 71.2807 179.532C69.8735 180.594 68.8513 181.827 68.4375 182.847" stroke="#33B4F7" stroke-width="1.03083" stroke-linecap="round"/>
<path d="M78.4667 179.707C76.6924 181.381 74.0801 182.769 74.0801 182.769" stroke="#FF4B4B" stroke-width="3.2985" stroke-linecap="round"/>
</g>
<mask id="mask21_131_7421" style="mask-type:luminance" maskUnits="userSpaceOnUse" x="-1" y="-13" width="486" height="274">
<path d="M484.821 -12.4414H-0.511719V260.306H484.821V-12.4414Z" fill="white"/>
</mask>
<g mask="url(#mask21_131_7421)">
<path d="M119.841 68.3868C119.841 68.3868 125.008 66.8533 132.528 64.605C136.333 63.4674 138.603 66.4574 138.989 68.7779C139.375 71.0985 138.021 75.0247 134.056 74.8054C126.031 74.3613 117.703 74.0146 117.703 74.0146L119.841 68.3868Z" fill="#FFB7E3"/>
<path d="M132.528 64.6066C140.055 62.3705 145.291 61.1293 148.112 60.3744C150.933 59.6195 154.021 63.5848 154.391 67.4854C154.763 71.4135 152.401 74.6483 149.407 74.7525C146.378 74.8588 142.067 75.2285 134.057 74.807C130.109 74.5993 128.977 72.4052 128.599 70.546C128.222 68.6868 128.711 65.7406 132.528 64.6066Z" fill="#FFB7E3"/>
<path d="M145.976 69.1603C147.056 72.1967 149.569 73.9473 151.589 73.0701C153.609 72.1929 154.37 69.0202 153.289 65.9838C152.209 62.9474 149.696 61.1968 147.676 62.0739C145.657 62.9511 144.895 66.1238 145.976 69.1603Z" fill="#FF9BDE"/>
<path d="M154.109 65.4442C153.547 63.1368 152.924 60.2389 152.107 57.7012" stroke="#FF7AD5" stroke-width="6.99146" stroke-linecap="round" stroke-linejoin="round"/>
<path d="M110.094 84.5895C110.522 83.4907 111.395 82.2276 112.343 81.3086" stroke="#FF86D0" stroke-width="3.79167" stroke-linecap="round" stroke-linejoin="round"/>
<path d="M117.594 77.9312C119.757 79.0274 117.596 77.9324 117.596 77.9324C117.596 77.9324 122.906 80.711 131.141 81.5711C133.32 81.7987 135.382 82.5191 135.819 84.6656C136.257 86.8121 134.873 88.9104 132.725 89.3443C125.621 90.7792 116.277 86.3523 113.88 84.9407C111.82 83.7279 111.208 81.5132 112.235 79.5781C113.26 77.6439 115.432 76.835 117.594 77.9312Z" fill="#FFB7E3"/>
<path d="M122.792 73.6048C125.891 74.7168 131.378 76.5363 134.933 82.575C138.488 88.6137 130.549 89.8807 128.6 87.1836C126.229 83.9019 121.759 81.8913 120.981 81.496C116.329 79.2125 118.117 71.3665 122.791 73.6042" fill="#FFB7E3"/>
<path d="M104.35 68.5002C104.739 68.0113 103.444 65.9336 103.444 65.9336L99.4069 68.109C98.8331 68.4183 98.1791 68.5464 97.5309 68.4765L91.9528 67.8758C90.7525 67.7464 89.8477 68.944 90.3003 70.0634L90.8575 71.4417C91.2018 72.2929 91.3997 73.1959 91.444 74.1129C91.5195 75.6854 92.9823 76.8186 94.5239 76.4989L95.8999 76.2135C98.9979 75.5712 101.649 73.583 103.134 70.7892L104.35 68.5002Z" fill="#FFB3E6"/>
<path d="M113.156 64.1485C108.812 67.8731 108.311 74.4132 112.035 78.7568C113.839 80.8602 117.182 82.4114 120.457 81.5283C123.967 80.5821 126.142 77.3879 127.562 74.8017C128.41 73.2577 128.962 71.8953 129.207 70.1864C129.452 68.4774 128.961 66.5776 127.764 65.269C123.901 61.048 117.499 60.4239 113.156 64.1485Z" fill="#FFB7E3"/>
<path d="M109.688 73.7599C109.608 73.2873 109.562 72.811 109.547 72.334L111.126 68.3109L115.681 62.5497C115.994 62.4096 116.313 62.2863 116.636 62.1794L118.133 61.8041C118.139 61.803 118.144 61.8017 118.15 61.8008C120.281 63.5824 120.788 67.0279 119.089 69.7462C117.091 72.9445 113.787 74.8003 109.688 73.7599Z" fill="#FF86D0"/>
<path d="M115.851 71.3558C115.783 71.2846 115.669 71.2866 115.604 71.3599L114.943 72.0988C114.884 72.1643 114.886 72.2645 114.947 72.328L116.107 73.5322C116.171 73.5992 116.278 73.6012 116.345 73.5364L117.052 72.8545C117.119 72.79 117.121 72.6838 117.057 72.6167L115.851 71.3558ZM118.87 65.433C118.778 65.398 118.676 65.4489 118.648 65.5432L118.369 66.4946C118.344 66.5791 118.389 66.6686 118.472 66.6996L120.036 67.2881C120.123 67.3209 120.221 67.2769 120.253 67.1896L120.599 66.2697C120.631 66.1827 120.588 66.0861 120.501 66.053L118.87 65.433Z" fill="#FFB3E6"/>
<path d="M115.966 60.575C109.021 60.3407 106.029 66.3072 108.031 71.1479L108.287 71.767C109.178 73.9202 114.203 74.598 117.237 69.9316C120.803 64.9369 118.581 60.7731 115.966 60.575Z" fill="#5ACD05"/>
<path d="M110.285 42.125C110.285 42.125 111.694 48.6843 112.259 51.7764C112.833 54.912 113.701 60.8088 113.701 60.8088" stroke="#5ACD05" stroke-width="5.30833" stroke-linecap="round" stroke-linejoin="round"/>
<path d="M109.382 70.1641C109.382 70.1641 103.164 71.5278 100.06 72.2852C96.3465 73.1909 88.9414 75.1498 88.9414 75.1498" stroke="#5ACD05" stroke-width="5.30833" stroke-linecap="round"/>
<path d="M105.865 42.2662C107.5 43.9288 110.173 43.9515 111.836 42.3168C113.499 40.682 113.521 38.0088 111.887 36.3462C110.252 34.6834 107.579 34.6605 105.916 36.2953C104.253 37.9302 104.231 40.6034 105.865 42.2662Z" fill="#E18E70"/>
<path d="M91.8747 78.5974C93.5812 76.673 93.4049 73.7297 91.4805 72.0226C89.5559 70.3158 86.612 70.4924 84.9054 72.4168C83.1986 74.3414 83.3752 77.2851 85.2999 78.9918C87.2245 80.6986 90.1676 80.5219 91.8747 78.5974Z" fill="#E18E70"/>
<path d="M85.4596 60.8568C89.4692 69.1186 99.4172 72.5655 107.679 68.556C115.941 64.5462 119.388 54.5985 115.378 46.3367C111.369 38.0749 101.421 34.628 93.1588 38.6375C84.897 42.647 81.4501 52.595 85.4596 60.8568Z" fill="#FFB3E6"/>
<path d="M98.5735 47.4401C94.7489 51.6293 95.073 58.1927 99.2977 62.1004C103.522 66.0082 109.185 66.0832 113.01 61.8942C116.835 57.7049 117.373 50.8381 113.148 46.9304C108.923 43.0226 102.398 43.2509 98.5735 47.4401Z" fill="#E18E70"/>
<path d="M112.582 60.6152C113.001 61.4686 112.451 63.3304 109.108 64.5068C105.764 65.6831 104.659 63.486 104.414 62.9883C104.17 62.4903 103.435 60.3021 105.084 59.7218C106.377 59.2669 108.325 60.3055 109.93 59.7408C111.535 59.1761 112.163 59.7617 112.582 60.6152Z" fill="#A70000"/>
<path d="M105.084 59.7236C105.695 59.5084 106.454 59.6275 107.253 59.7529C108.143 59.8925 109.084 60.0403 109.93 59.7427C110.674 59.4812 111.207 59.4664 111.608 59.6108C111.273 60.1416 110.548 60.7455 109.44 61.2315C107.439 62.0932 105.444 61.8462 104.22 61.1955C104.057 60.4383 104.57 59.9045 105.084 59.7236Z" fill="white"/>
<path d="M109.721 55.8333C109.7 55.8691 110.106 57.284 110.53 57.7328C110.948 58.1748 111.877 57.8671 112.153 57.3966C112.428 56.9261 112.207 56.5874 111.708 56.3377C111.321 56.0567 109.742 55.7977 109.721 55.8333ZM112.301 51.1161C112.485 51.0797 112.567 50.8918 112.485 50.6964C112.402 50.5011 112.187 50.3721 112.004 50.4085C110.691 50.6693 110.06 51.4819 109.818 52.3864C109.58 53.2758 109.716 54.2506 109.916 54.887C109.978 55.0853 110.184 55.2333 110.375 55.2178C110.566 55.2023 110.67 55.0291 110.607 54.8309C110.44 54.2999 110.325 53.4639 110.525 52.7159C110.721 51.9826 111.22 51.331 112.301 51.1161ZM103.649 58.4502C103.549 58.626 103.314 58.6934 103.124 58.601C102.933 58.5085 102.859 58.2912 102.958 58.1154C103.713 56.7783 104.862 56.1633 105.988 55.951C107.096 55.7421 108.173 55.9236 108.839 56.1586C109.04 56.2296 109.141 56.4376 109.065 56.623C108.99 56.8083 108.765 56.9012 108.564 56.8303C108.011 56.6349 107.085 56.4786 106.146 56.6555C105.225 56.8292 104.285 57.3233 103.649 58.4502Z" fill="#9E4D31"/>
<path d="M93.0871 55.1204C93.025 54.5295 93.5417 54.0051 94.0529 53.9523C94.4434 53.9835 94.9068 53.814 95.4413 53.445C96.3206 52.8729 96.3984 46.8752 102.548 44.2689C104.895 43.1589 108.794 43.2101 109.534 44.8406C111.022 48.1294 110.05 54.1285 103.06 56.9855C96.5248 59.7576 93.8481 57.0112 93.0871 55.1204Z" fill="#3B3B3B"/>
</g>
<mask id="mask22_131_7421" style="mask-type:luminance" maskUnits="userSpaceOnUse" x="-1" y="-13" width="486" height="274">
<path d="M484.821 -12.4414H-0.511719V260.306H484.821V-12.4414Z" fill="white"/>
</mask>
<g mask="url(#mask22_131_7421)">
<mask id="mask23_131_7421" style="mask-type:alpha" maskUnits="userSpaceOnUse" x="-7" y="188" width="268" height="92">
<path d="M173.755 190.708C161.327 182.039 276.404 227.571 258.022 214.672C254.434 212.155 179.801 267.048 174.342 270.184C165.01 275.546 7.57425 272.312 -1.84099 278.396C-3.53189 279.489 -7.23444 249.884 -5.35313 253.381C2.07638 267.193 66.9138 250.131 78.2712 269.74C79.1439 271.247 114.964 233.534 116.71 234.188C119.143 235.099 122.168 234.922 125.07 232.93C136.744 224.916 162.275 209.118 172.955 200.999C176.4 198.38 176.894 192.898 173.755 190.708Z" fill="white"/>
<path d="M173.755 190.708C161.327 182.039 276.404 227.571 258.022 214.672C254.434 212.155 179.801 267.048 174.342 270.184C165.01 275.546 7.57425 272.312 -1.84099 278.396C-3.53189 279.489 -7.23444 249.884 -5.35313 253.381C2.07638 267.193 66.9138 250.131 78.2712 269.74C79.1439 271.247 114.964 233.534 116.71 234.188C119.143 235.099 122.168 234.922 125.07 232.93C136.744 224.916 162.275 209.118 172.955 200.999C176.4 198.38 176.894 192.898 173.755 190.708Z" stroke="#9DEEC7" stroke-width="1.64306"/>
</mask>
<g mask="url(#mask23_131_7421)">
<mask id="mask24_131_7421" style="mask-type:luminance" maskUnits="userSpaceOnUse" x="-1" y="-13" width="486" height="274">
<path d="M484.821 -12.4414H-0.511719V260.306H484.821V-12.4414Z" fill="white"/>
</mask>
<g mask="url(#mask24_131_7421)">
<path d="M102.148 216.232C100.5 218.303 96.2174 221.253 96.2174 221.253C96.2174 221.253 93.557 221.074 91.9473 219.102" stroke="#3D3D3D" stroke-width="6.06667" stroke-linecap="round" stroke-linejoin="round"/>
<path d="M111.515 194.855C107.031 194.446 103.065 197.75 102.656 202.233C102.248 206.717 105.468 210.575 109.952 210.983C114.435 211.392 118.65 208.222 119.058 203.738C119.467 199.254 115.998 195.263 111.515 194.855ZM101.987 196.794C95.4111 195.193 89.3943 197.232 88.2959 202.934C87.1974 208.636 92.6695 211.561 98.4423 212.188C111.45 213.601 117.19 200.494 101.987 196.794Z" fill="#3D3D3D"/>
<path d="M108.709 202.197C112.611 205.345 118.996 206.307 125.014 207.11C131.033 207.912 138.049 214.016 136.66 221.369C135.434 227.857 128.751 231.563 121.943 231.07C114.375 230.522 106.644 229.042 97.1938 222.723C87.7434 216.405 89.2784 207.915 93.044 202.801C96.8097 197.687 104.808 199.05 108.709 202.197Z" fill="#DB8D74"/>
<mask id="mask25_131_7421" style="mask-type:alpha" maskUnits="userSpaceOnUse" x="90" y="199" width="47" height="33">
<path d="M109.053 202.003C112.91 205.204 119.281 206.255 125.288 207.14C131.295 208.026 138.226 214.227 136.735 221.56C135.419 228.031 128.685 231.644 121.885 231.056C114.325 230.403 106.616 228.816 97.2536 222.367C87.8917 215.918 89.5442 207.45 93.3804 202.389C97.2166 197.327 105.195 198.801 109.053 202.003Z" fill="#DB8D74"/>
</mask>
<g mask="url(#mask25_131_7421)">
<path d="M112.792 201.157C109.665 199.783 148.964 195.167 144.052 222.425C138.404 253.766 89.1117 225.249 97.6163 227.84C102.247 229.251 107.005 229.258 110.817 227.751C111.59 227.445 112.324 227.077 113.011 226.645C113.671 226.23 114.287 225.756 114.85 225.223C116.743 223.433 118.313 220.818 119.176 217.753C120.941 211.483 117.369 203.169 112.792 201.157ZM119.263 203.577C119.263 203.577 147.317 200.513 144.212 222.059C141.107 243.605 107.898 232.149 107.898 232.149C107.898 232.149 124.809 230.712 126.969 219.969C129.091 209.417 119.263 203.577 119.263 203.577ZM127.86 209.965L128.755 211.477L125.954 211.209L125.15 209.655L127.86 209.965ZM123.211 204.412C123.211 204.412 146.996 205.433 143.445 222.116C139.895 238.799 113.295 232.925 113.295 232.925C113.295 232.925 126.704 230.934 129.136 220.218C131.243 210.927 123.211 204.412 123.211 204.412ZM127.105 219.285L129.738 220.001L129.115 222.154L126.59 221.26L127.105 219.285Z" fill="#FFAADE"/>
<path d="M119.261 203.576C119.261 203.576 147.315 200.512 144.21 222.058C141.105 243.604 107.896 232.148 107.896 232.148C107.896 232.148 124.807 230.712 126.967 219.968C129.089 209.416 119.261 203.576 119.261 203.576Z" fill="#A56641"/>
<path d="M127.859 209.965L128.754 211.477L125.953 211.209L125.15 209.655L127.859 209.965ZM123.21 204.412C123.21 204.412 146.995 205.433 143.445 222.116C139.894 238.799 113.295 232.925 113.295 232.925C113.295 232.925 126.704 230.934 129.135 220.218C131.243 210.927 123.21 204.412 123.21 204.412ZM127.105 219.285L129.738 220.001L129.115 222.154L126.589 221.26L127.105 219.285Z" fill="#2CE69B"/>
</g>
<mask id="mask26_131_7421" style="mask-type:alpha" maskUnits="userSpaceOnUse" x="90" y="198" width="48" height="34">
<path d="M109.053 202.003C112.91 205.204 119.281 206.255 125.288 207.14C131.295 208.026 138.226 214.227 136.735 221.56C135.419 228.031 128.685 231.644 121.885 231.056C114.325 230.403 106.616 228.816 97.2536 222.367C87.8917 215.918 89.5442 207.45 93.3804 202.389C97.2166 197.327 105.195 198.801 109.053 202.003Z" fill="#DB8D74"/>
<path d="M109.053 202.003C112.91 205.204 119.281 206.255 125.288 207.14C131.295 208.026 138.226 214.227 136.735 221.56C135.419 228.031 128.685 231.644 121.885 231.056C114.325 230.403 106.616 228.816 97.2536 222.367C87.8917 215.918 89.5442 207.45 93.3804 202.389C97.2166 197.327 105.195 198.801 109.053 202.003Z" stroke="#3D3D3D" stroke-width="0.505556"/>
</mask>
<g mask="url(#mask26_131_7421)">
<path d="M111.943 191.236C117.83 192.09 119.62 197.523 119.482 201.124C119.344 204.729 118.479 208.648 113.553 210.483C108.382 212.41 102.247 209.2 101.803 201.544C101.482 196.021 106.056 190.383 111.943 191.236Z" fill="#3D3D3D"/>
</g>
<path d="M103.115 190.128C98.8391 189.738 95.0589 192.874 94.671 197.132C94.2831 201.39 97.4343 205.157 101.71 205.547C105.985 205.936 109.765 202.8 110.153 198.542C110.541 194.285 107.39 190.517 103.115 190.128Z" fill="#3D3D3D"/>
<path d="M112.017 207.144C110.764 207.03 109.656 207.953 109.541 209.207C109.427 210.46 110.35 211.569 111.604 211.683C112.857 211.797 113.966 210.874 114.08 209.62C114.194 208.367 113.271 207.258 112.017 207.144Z" fill="#DB8D74"/>
<path d="M105.627 215.927C105.36 215.7 104.959 215.732 104.732 216L99.7353 221.876C99.5082 222.143 99.5403 222.544 99.8076 222.771L99.8641 222.819C101.754 224.426 104.589 224.196 106.196 222.307C107.803 220.417 107.573 217.582 105.684 215.975L105.627 215.927Z" fill="#B82C2C"/>
<g opacity="0.8">
<path d="M103.778 223.775C104.69 223.567 105.544 223.073 106.196 222.306C106.986 221.377 107.332 220.221 107.256 219.094C106.343 219.3 105.488 219.793 104.835 220.561C104.045 221.49 103.7 222.647 103.778 223.775Z" fill="#FD5050"/>
</g>
<path d="M103.102 217.699C101.029 218.847 96.219 221.362 96.219 221.362L93.623 220.525" stroke="#3D3D3D" stroke-width="6.06667" stroke-linecap="round" stroke-linejoin="round"/>
<path d="M93.7786 217.638C93.7786 217.638 92.5734 216.415 91.4826 215.222C90.8071 213.242 90.4943 211.523 90.5211 209.617C91.3858 209.933 92.0534 211.794 92.341 212.768L93.7786 217.638ZM94.3139 210.175C95.5404 209.545 97.1202 210.108 97.6221 211.466L98.8656 214.8C96.1425 215.52 94.9223 217.234 94.9223 217.234L93.5506 213.222C93.2054 212.288 93.3529 210.637 94.3139 210.175Z" fill="white"/>
<path d="M91.9612 211.707C91.7487 211.02 91.3086 210.522 90.9778 210.595C90.647 210.668 90.5508 211.285 90.7633 211.972L90.8972 212.405C91.1095 213.092 91.5498 213.59 91.8806 213.517C92.2114 213.443 92.3076 212.827 92.0951 212.14L91.9612 211.707ZM95.5749 212.164C95.3902 211.477 94.8503 211.016 94.3688 211.135C93.8872 211.253 93.6467 211.906 93.8314 212.592L93.9476 213.025C94.1323 213.712 94.6724 214.173 95.1539 214.055C95.6355 213.936 95.8761 213.284 95.6914 212.597L95.5749 212.164Z" fill="#3D3D3D"/>
<path d="M97.3743 206.163C97.3743 206.163 95.614 205.296 94.4741 205.842M89.9374 205.833C89.9374 205.833 87.9926 206.092 87.3496 207.181" stroke="#3D3D3D" stroke-width="3.03333" stroke-linecap="round" stroke-linejoin="round"/>
<path d="M94.6413 216.317C93.5256 216.215 92.54 217.024 92.4399 218.123C92.3398 219.222 93.163 220.195 94.2787 220.297C95.3943 220.398 96.3799 219.59 96.48 218.491C96.5801 217.392 95.7569 216.419 94.6413 216.317Z" fill="#DB8D74"/>
</g>
</g>
<path d="M124.233 227.779C126.207 228.538 128.931 229.617 128.187 232.251C127.519 234.615 124.594 234.371 122.672 233.505C121.68 234.693 120.21 233.792 120.782 232.558C121.74 230.492 122.564 227.138 124.233 227.779Z" fill="#DB8D74"/>
<path d="M122.268 222.35L122.863 229.345" stroke="#FFAADE" stroke-width="6.31944" stroke-linecap="round" stroke-linejoin="round"/>
</g>
</g>
<defs>
<linearGradient id="paint0_linear_131_7421" x1="119.398" y1="108.498" x2="93.9855" y2="123.358" gradientUnits="userSpaceOnUse">
<stop stop-color="#FFA75F"/>
<stop offset="0.5" stop-color="#FFB78B"/>
<stop offset="1" stop-color="#FFC7B8"/>
</linearGradient>
</defs>
</svg>
