<svg width="24" height="16" viewBox="0 0 24 16" fill="none" xmlns="http://www.w3.org/2000/svg">
<path d="M23.0137 7.77219C22.9819 7.69906 22.2019 5.96938 20.46 4.2275C18.8437 2.61313 16.0669 0.6875 12 0.6875C7.93311 0.6875 5.15623 2.61313 3.53998 4.2275C1.79811 5.96938 1.01811 7.69625 0.986235 7.77219C0.954184 7.84419 0.937622 7.92212 0.937622 8.00094C0.937622 8.07975 0.954184 8.15768 0.986235 8.22969C1.01811 8.30187 1.79811 10.0316 3.53998 11.7734C5.15623 13.3878 7.93311 15.3125 12 15.3125C16.0669 15.3125 18.8437 13.3878 20.46 11.7734C22.2019 10.0316 22.9819 8.30469 23.0137 8.22969C23.0458 8.15768 23.0623 8.07975 23.0623 8.00094C23.0623 7.92212 23.0458 7.84419 23.0137 7.77219ZM12 14.1875C9.05811 14.1875 6.48936 13.1169 4.36405 11.0066C3.47315 10.1211 2.71924 9.10778 2.12717 8C2.71908 6.8924 3.47301 5.87936 4.36405 4.99438C6.48936 2.88313 9.05811 1.8125 12 1.8125C14.9419 1.8125 17.5106 2.88313 19.6359 4.99438C20.527 5.87936 21.2809 6.8924 21.8728 8C21.2756 9.14469 18.2812 14.1875 12 14.1875ZM12 3.6875C11.1471 3.6875 10.3133 3.94042 9.60409 4.41429C8.8949 4.88815 8.34216 5.56167 8.01575 6.34968C7.68935 7.13768 7.60395 8.00478 7.77035 8.84133C7.93675 9.67787 8.34747 10.4463 8.95059 11.0494C9.5537 11.6525 10.3221 12.0632 11.1587 12.2296C11.9952 12.396 12.8623 12.3106 13.6503 11.9842C14.4383 11.6578 15.1118 11.1051 15.5857 10.3959C16.0596 9.68671 16.3125 8.85293 16.3125 8C16.311 6.85671 15.8562 5.76067 15.0477 4.95225C14.2393 4.14382 13.1433 3.68899 12 3.6875ZM12 11.1875C11.3696 11.1875 10.7533 11.0006 10.2291 10.6503C9.70492 10.3001 9.29637 9.80224 9.05512 9.2198C8.81387 8.63736 8.75074 7.99646 8.87373 7.37815C8.99672 6.75984 9.3003 6.19188 9.74608 5.7461C10.1919 5.30032 10.7598 4.99674 11.3781 4.87375C11.9964 4.75076 12.6373 4.81388 13.2198 5.05513C13.8022 5.29639 14.3 5.70494 14.6503 6.22912C15.0005 6.7533 15.1875 7.36957 15.1875 8C15.1875 8.84538 14.8517 9.65613 14.2539 10.2539C13.6561 10.8517 12.8454 11.1875 12 11.1875Z" fill="#B3B3B3"/>
</svg>
